<svg xmlns="http://www.w3.org/2000/svg" xml:space="preserve" viewBox="0 0 1024 1024">
  <path fill="#FDFDFD" d="M540 1025H1V1h1024v1024H540m259.263123-775.900314c-.295411-.180985-.590821-.361985-.833985-.398819 0 0 .078247-.131867-.152649-.651474-.417907-.375931-.835815-.751862-1.494995-1.747406-3.55365-3.445755-7.1073-6.891495-10.909302-10.843857-.446289-.321884-.892578-.643768-1.388-.917557 0 0-.051025-.046127-.213196-.519287-.28418-.15802-.56842-.31604-.856872-.069473 0 0 .033569-.404053-.140503-.890625-.287354-.169373-.574646-.338745-.932434-.063294 0 0 .09729-.440735-.090516-.937027-.303588-.168411-.607238-.336837-.976196-.356231 0 0 .152161-.057694-.059265-.578461-.32428-.175888-.64856-.351761-.950134-.369904 0 0 .115478-.109863-.195252-.668716-.987976-.821121-1.976013-1.642227-3.263428-3.043121-3.366149-2.951767-6.673034-5.974427-10.107849-8.84401-25.923462-21.657532-53.984253-39.975845-85.150695-54.302261 0 0-.469849-.069245-.47699.027054 0 0 .093506-.024079-.286438-.513489-.584778-.179306-1.169556-.358612-1.743103-.451019 0 0 .083191-.027756-.303284-.496888-.571411-.128524-1.142822-.257034-2.105163-.531707 0 0-.417298.002334-.759827-.617905-1.482544-.622498-2.965088-1.24501-4.549255-1.848557 0 0-.086609.056366-.502442-.452331-5.254089-2.064896-10.508179-4.129791-15.764465-6.087677 0 0 .10376-.026306-.375183-.568329-2.556824-.772324-5.113587-1.544662-8.061951-2.437607 0 0-.409363.01677-.773315-.612015-.939087-.166458-1.878174-.332916-2.812684-.375869 0 0 .120545-.027283-.232116-.65593-10.857422-3.311661-21.566284-7.281402-32.608582-9.773941-14.921936-3.368271-30.100097-5.601517-45.878906-8.351929-5.404236-.392181-10.808411-.784347-16.621704-1.900344-16.885437-.385415-33.770874-.770829-51.415589-1.310418-.767578.064499-1.535156.128991-3.049987.092537-1.096161.315644-2.192353.631279-4.127747.975907-3.654694.291107-7.319.493652-10.962158.890564-9.394013 1.023452-18.778656 2.132904-29.030853 2.976883-8.036011 1.421218-16.072052 2.842437-24.901032 4.151046-6.400329 1.702668-12.800659 3.405335-19.975342 4.99289-2.030273.650909-4.057251 1.312271-6.091308 1.951141-20.675782 6.494003-41.051514 13.741181-60.17154 24.021637 0 0-.010162-.078827-.66925.014008-1.138031.643142-2.276032 1.286285-3.339935 1.957901 0 0 .00946-.078858-.590302.006042-.490631.325592-.981262.651169-1.402283 1.018143 0 0-.012085-.080078-.716003.043243-2.818481 1.606858-5.636963 3.213715-8.327789 4.857941 0 0-.003784-.13298-.607972.001877-.487792.33966-.975585.679336-1.366851 1.049133 0 0 .006286-.100952-.583557.020355-.486664.330414-.973328.660843-1.393921 1.033112 0 0-.011505-.077316-.651551.03566-1.09732.675476-2.194671 1.350937-3.974548 2.148681-6.747772 4.231659-13.601105 8.305146-20.223419 12.724777-19.399811 12.947114-37.817841 27.130875-54.714188 44.096283-.231231.311234-.462463.622452-1.109298 1.004746-.273148.160339-.396668.398331-.891053.978744-.21112.317902-.422241.635804-.462112.950791 0 0-.029251-.168747-.56044.047485-.20842.311188-.416825.622376-.454529.945374 0 0-.01973-.169968-.551971.046844-.206467.313843-.412949.627701-.447632.953232 0 0-.019745-.171051-.555237.043137-.21109.311126-.42218.622253-.454743.946807 0 0-.022338-.177627-.556884.040848-.203064.31868-.406128.63736-.435318.968704 0 0-.019303-.173278-.553482.043091-.206238.315064-.412476.630127-.440979.970642 0 0-.002228-.179504-.559113.034668-.233047.315857-.466095.631714-1.263214 1.179062-1.053268 1.216309-2.106537 2.432617-3.666611 3.890351-.206192.305297-.412384.61058-1.149353 1.096038-.441803.580613-.883606 1.16124-1.776825 1.976578-.181564.277405-.363128.55481-1.156631 1.112793-12.773514 16.596115-25.547013 33.192215-38.698792 50.218796-.256042.499237-.512085.998444-.685806 1.51178 0 0-.034348-.076142-.533478.277984-.246979.554688-.493942 1.109345-.581344 1.666291 0 0-.04892-.151886-.58078.159881-.250092.559143-.500184 1.118317-.565369 1.768952 0 0 .005188-.206208-.520279.026947-.137115.355743-.274246.711456-.286331 1.066314 0 0-.036591-.119568-.583634.209046-.466888.942657-.933761 1.885315-1.326706 2.837341 0 0-.040084-.062836-.503494.32431-.246795.544403-.493576 1.088837-.598144 1.629883 0 0-.041825-.135986-.598404.2258-.595764 1.165161-1.191513 2.330322-1.693604 3.625244 0 0 .069947-.143952-.442352.091186-.114029.357331-.228058.714692-.233765 1.070496 0 0-.030014-.104095-.599441.281403-.938217 1.806488-1.87645 3.612976-2.731964 5.547454 0 0 .072281-.134185-.439667.102997-.103821.359864-.207642.719727-.211624 1.075318 0 0-.027176-.096161-.526047.270843-.20842.577332-.41684 1.154663-.496857 1.725708 0 0-.035354-.123596-.56398.216248-.208877.588073-.417755 1.176147-.475174 1.764831 0 0-.041565-.14563-.621338.238556-2.514358 5.242737-5.028732 10.485443-7.399139 15.747254 0 0-.030518-.141968-.561676.207794-.183365.605041-.36673 1.210113-.404373 1.813873 0 0-.038758-.140533-.568772.210419-.159332.608062-.318664 1.216095-.377273 1.814422 0 0-.029419-.096832-.569534.35315-.878846 2.199829-1.757676 4.399658-2.501358 6.61734 0 0-.024277-.134155-.6008.303314-.896896 2.364624-1.793793 4.729218-3.202072 7.498871-2.372803 7.041504-4.745606 14.083038-7.785614 21.464966-3.711716 13.260681-7.423432 26.521362-11.342331 40.573791-.680267 4.061768-1.36055 8.123566-2.726792 12.573487-1.032318 6.879669-2.064628 13.759338-3.250946 21.457672-.024162 1.382385-.048324 2.76474-.783248 4.575744-.670388 8.204499-1.340783 16.409027-2.158822 25.516938-.142494 4.644989-.302299 9.289489-.424675 13.934997-.845947 32.113159 2.011437 63.856323 9.468811 95.704895.094132.167053.188279.334046.426865 1.227173.834152 2.24469 1.668305 4.48938 2.763367 6.857117.217026-.013306.365829-.12085-.536102-.13086.455963 1.301514.911941 2.603028 1.5625 4.022766 0 0 .369735-.230224-.492005-.040649.098053.844727.196121 1.689453.243897 3.313721 2.35765 7.394165 4.715286 14.78833 7.080261 22.921692 2.188995 5.45874 4.377991 10.917419 6.710007 17.044799.32521.78888.650405 1.57782 1.068328 2.933533.276429.462647.552872.925293.96492 2.080628.693436 1.450317 1.386857 2.900634 2.104676 4.275207 0 0-.078842-.010803-.004074.612488.305267.515869.610519 1.031677.937622 1.415161 0 0-.133499.013062-.013779.72821 1.022308 2.100464 2.044617 4.200928 3.101532 6.236268 0 0-.073746-.000794.003815.565368.242172.247986.484344.496033.692184.554871 0 0-.15921.107727-.031586.753723.422959.746399.845902 1.492737 1.292679 2.147278 0 0-.094864-.002075-.003723.574219.253372.234985.506745.46997.53505.691406 0 0-.037095.222473.137771.716308.169556.308106.339096.616272.585892 1.626099 6.212875 11.136292 12.053146 22.501343 18.71991 33.358948 12.101348 19.708496 25.82788 38.252441 42.036178 55.59674.311768.219727.623535.439393.916428.508057 0 0-.136322.067627.111389.643311.867233.880249 1.734467 1.760437 2.718124 2.577209 0 0-.126892-.038574.06427.488953.302765.199096.605515.398193.93158.431152 0 0-.14093.090881.045639.6073.299469.189392.598938.378784.858337.404114 0 0-.106262.131286.120957.655273.419693.374817.839386.749634 1.507522 1.742493 23.855317 25.0448 50.6586 46.415405 80.260682 64.277832 19.160491 11.561767 39.210998 21.305237 60.566558 29.784851 14.291657 4.612854 28.583313 9.225647 43.310852 14.180908.547638.01294 1.095246.025879 2.35376.311646 4.630951 1.141479 9.215424 2.547363 13.902252 3.370849 10.753571 1.88971 21.557099 3.495484 33.114197 5.426697 1.064881.031616 2.129761.063232 3.637726.808472 10.876648.667053 21.753296 1.334106 33.556458 2.144104 9.35083-.046265 18.70169-.09253 28.970794.017639 15.187317-1.356018 30.441162-2.215637 45.538941-4.239624 10.342956-1.386475 20.468505-4.393677 30.584289-6.702088 0 0-.00769.109681.75708.04889 1.134156-.349305 2.268372-.698609 3.813416-1.013977 0 0 .401367-.094178 1.066284.079589.443359-.110412.886719-.220886 1.848938-.268615.197449-.276612.394897-.553284.49646-.826294 0 0 .019958.093872.852295.035705 6.334106-1.697693 12.814209-2.986206 18.970642-5.182068 11.225586-4.004028 22.259399-8.545837 33.789551-12.85382 0 0 .392822-.138001 1.014404-.047791.516968-.299011 1.033936-.598022 1.437134-.926025 0 0 .00885.117004.648071.015258.754212-.385864 1.508423-.771728 2.817566-1.178466.218872-.292359.437744-.584717 1.078003-.865052 0 0 .394287-.148864 1.067932-.099731 1.159729-.624207 2.319458-1.248413 3.362732-1.902527 0 0-.004333.120056.623413.021607.512879-.317566 1.025757-.635132 1.39978-.977967 0 0 .015137.14032.720093.008911 1.805237-1.020691 3.610474-2.04132 5.839844-3.054504 0 0 .391785-.16272.935791-.155273.214294-.286316.428589-.572693 1.061157-.847962 0 0 .386536-.160522 1.102722-.171081 3.492737-1.916504 6.985474-3.832947 10.360657-5.768372 0 0 .027588.115845.476196.008789 0 0 .400574-.228332 1.093201-.325622 3.733521-2.136475 7.496826-4.22284 11.195862-6.417359 24.211914-14.365051 46.859924-30.820923 67.671814-50.537109.19165-.274536.38324-.549134 1.19519-1.060181 5.104126-5.216614 10.208313-10.433166 15.848084-15.947571.511657-.626526 1.023315-1.253051 2.135559-2.148132 6.187805-7.165527 12.583557-14.163208 18.527283-21.525696 25.25354-31.281555 45.350769-65.570862 59.929565-103.874145 1.01062-3.082703 2.021179-6.165345 2.912231-9.247498 0 0 .028443.116089.645081-.283081 3.650207-12.264099 7.300354-24.528198 11.237122-37.618652.859619-4.731995 1.813293-9.449158 2.557678-14.199219 1.242737-7.930176 2.351501-15.881287 4.229553-24.188171.712891-9.906556 1.42572-19.81305 2.288391-30.368714.028931-.442993.057922-.885986.7594-1.766784.017883-1.878663.035766-3.757386.189697-6.563172-.04364-9.016113-.087219-18.032196.020813-27.782867-.29541-1.115265-.59076-2.230561-.947205-4.08899-.056396-.740509-.112854-1.481018-.050964-2.990966-.503418-8.554657-.713501-17.140137-1.607544-25.653748-.658692-6.272217-2.211121-12.450561-3.242371-19.514648-.443969-3.017456-.887878-6.034943-1.213562-9.86554-4.683105-17.377228-9.36615-34.754455-14.036621-52.873505-2.690246-6.772003-5.380493-13.543975-8.064636-21.006713-.906677-1.824372-1.813355-3.648743-2.742615-5.350251 0 0 .124146-.013794.016052-.732971-1.01477-2.110992-2.02948-4.222015-3.071838-6.24469 0 0 .092163.009003.004334-.610107-.31366-.508698-.627381-1.017365-.973206-1.40329 0 0 .126831.003387.024536-.620819-.319702-.511536-.639404-1.023102-.985718-1.401245 0 0 .135132-.015717-.00354-.747284-2.318115-4.464569-4.63623-8.929169-6.971862-13.276795 0 0 .11322-.03421.014709-.482177 0 0-.243408-.388764-.347656-1.082306-3.342713-5.881165-6.50531-11.873688-10.060486-17.623474-12.725403-20.580872-26.742432-40.207154-43.704712-58.32489-.308228-.222855-.616394-.44571-.902527-.512192 0 0 .139649-.073746-.09491-.620041-.560302-.546478-1.120666-1.092957-1.78778-1.53804 0 0 .146545.014785-.057434-.519516-.315125-.198365-.630188-.396729-.97229-.403229 0 0 .18219-.065918-.006958-.59787-.300843-.205368-.601624-.410721-.921082-.449127 0 0 .140076-.092713-.046387-.608002-.296936-.19136-.593872-.382721-.916931-.41423 0 0 .111572-.117417-.072204-.621765z"/>
  <path fill="#B22D36" d="M797.038513 779.142029c-5.104126 5.216614-10.208313 10.433166-15.868835 15.770691-.743347.451904-.930237.782898-1.117188 1.11383-20.333496 19.541626-42.981506 35.997498-67.19342 50.362549-3.699036 2.194519-7.462341 4.280884-11.653565 6.300964-.666504.105408-.875305.32721-1.084167.549073.000061 0-.027527-.115845-.362-.153015-3.803772 1.913879-7.273071 3.86499-10.74237 5.816101 0 0-.386536.160522-.841309.228882-.686645.302917-.918518.537597-1.15039.772216 0-.000061-.391785.162659-.984498.134644-2.379211 1.052673-4.165649 2.133301-5.952087 3.213928 0 0-.015137-.14032-.284973-.147766-.765808.356262-1.26178.720032-1.75769 1.083862 0 0 .004333-.120056-.322999-.130859-1.454589.614258-2.581787 1.239197-3.709045 1.864197 0 0-.394287.148864-.905579.11676-.711486-.036743-.911682-.041382-1.446838-.020386-1.082153.749634-1.829407 1.473694-2.57666 2.197754 0 0-.00885-.117004-.268128-.12439-.772644.276185-1.28601.559693-1.799438.843201 0 0-.392822.138001-1.00177.109558-2.206055.385926-3.842346.688477-5.393982 1.232422-11.102905 3.892517-22.190552 7.828552-33.278809 11.762695-4.775512 1.694397-9.540832 3.41742-14.310791 5.127381 0 0-.019958-.093872-.24884-.124695-.413391-.035156-.597839-.039429-1.084656-.030457-.767151.336304-1.231933.659424-1.696777.982483 0-.000061-.401367.094117-.997437.055909-1.724731.345459-2.853393.729187-3.982116 1.112976 0 0 .00769-.109681-.380005-.128846-2.186768.164856-4.024414.173584-5.779053.559632-21.811157 4.798828-43.827453 7.934387-66.187134 8.447876-1.565246.035888-3.117614.634338-5.144592.96521-9.818115.004333-19.167633.014648-28.90033-.143616-7.541656-.735107-14.694152-1.40564-21.861328-1.824036-3.59732-.210022-7.221435.039002-10.833435.080445-1.06488-.031617-2.12976-.063233-3.684448-.567932-.851868-.784852-1.176086-1.304383-1.581573-1.378235-13.220917-2.409729-26.442841-4.815979-39.684723-7.106507-1.938904-.335327-3.978302-.089416-5.971222-.112487-.547638-.013001-1.095246-.02594-1.977753-.581177-1.306976-1.116883-2.212707-1.900391-3.261536-2.233643-9.734253-3.092956-19.481689-6.145935-29.251037-9.126159-3.580322-1.092164-7.229614-1.958252-10.847443-2.92743-20.971527-7.830993-41.022034-17.574463-60.182525-29.13623-29.602082-17.862427-56.405365-39.233032-80.417572-64.919617-.63057-.969421-1.104218-1.297058-1.577851-1.624695 0 0 .106262-.131286.133881-.373474-.339096-.387573-.705811-.532959-1.07254-.678345.000015 0 .140945-.090881.124389-.330627-.379776-.399475-.742981-.559204-1.106201-.718933.000015 0 .126907.038574.178909-.305725-.971283-1.165711-1.994568-1.987122-3.017852-2.808533.000015-.000061.136337-.067688.059066-.284363-.413986-.418335-.750686-.619995-1.087402-.821655-15.960053-16.814026-29.686585-35.357971-41.787933-55.066467-6.666764-10.857605-12.507035-22.222656-18.529221-33.885498-.190033-.882202-.57074-1.237793-.951447-1.593384 0 0 .037095-.222473.156876-.508911-.168808-.518067-.457397-.749634-.745972-.981262 0 0 .094864.002075.0943-.327942-.473633-1.041138-.946686-1.752198-1.419739-2.463257 0 0 .15921-.107727.182556-.303894-.24881-.439026-.52095-.681946-.793091-.924866 0 0 .073746.000794.057465-.359253-1.079178-2.437134-2.142075-4.514282-3.204971-6.591369 0 0 .133499-.013062.130966-.278626-.338318-.768005-.674088-1.270447-1.009857-1.772888 0 0 .078842.010803.072723-.343689-.748795-1.774109-1.491486-3.193787-2.234177-4.613403-.276428-.462647-.552871-.925293-.593658-1.829468-.325241-1.34784-.886109-2.254273-1.446991-3.160645-2.188995-5.45874-4.377991-10.917419-6.305878-16.976318-1.938385-8.109863-4.137878-15.619568-6.359329-23.581726-.136047-1.049317-.250122-1.646179-.364197-2.243103 0 0-.369735.230224-.474548-.341919-.228272-1.595581-.35173-2.618958-.475189-3.642334-.080567.201721-.22937.309265-.541703-.17865-1.001037-2.694824-1.906768-4.888367-2.812515-7.08197-.094131-.167053-.188278-.334046.019165-1.05188.411713-1.197571.699982-1.871582.605698-2.487061-1.814301-11.843628-3.912567-23.649292-5.454315-35.527527-1.463654-11.276489-2.970032-22.607727-3.333115-33.950866-.405212-12.658936.45681-25.358429.778885-38.498169.320129-4.372223.756332-8.281708.90213-12.202057.15313-4.117615.028084-8.245544.024582-12.368988.02417-1.382385.048332-2.76474.525139-4.640198 1.066139-2.972778 1.913276-5.421966 2.241707-7.938873.580642-4.449585.84552-8.940338 1.242553-13.41388.680283-4.061767 1.360566-8.123565 2.500428-12.656951 2.025146-5.806916 3.662414-11.122437 5.139358-16.482148 2.196365-7.970428 4.279343-15.972076 6.410584-23.960449 2.372802-7.041504 4.745605-14.083038 7.727523-21.526337 1.462555-2.779388 2.31601-5.156951 3.169465-7.534545.000015 0 .024292.134155.319702.038574 1.112289-2.387634 1.929184-4.679688 2.746063-6.971741 0 0 .029419.096832.279297-.042358.385727-.768219.52156-1.397187.657409-2.026184 0 0 .038758.140533.283722.013214.393509-.763642.542038-1.399994.690583-2.036316-.000016 0 .030502.141968.313186.060699 2.753861-5.404205 5.225052-10.727173 7.696244-16.050171-.000016 0 .041549.14563.282623.025666.414947-.741547.588837-1.363129.762726-1.984711 0 0 .035354.123596.274002-.002991.411468-.739746.584274-1.352936.75708-1.966125 0 0 .027176.096161.249954-.014191.31546-.474274.408127-.838226.500794-1.202148 0 0-.072281.134185.270492.085815 1.214722-1.993774 2.08667-3.939178 2.958634-5.884582-.000016 0 .029998.104095.252563-.003296.322876-.471009.423187-.834626.523499-1.198243 0 0-.069947.143952.272933.088471.86435-1.347504 1.385819-2.639526 1.907303-3.931549 0 0 .041825.135986.275727.022919.431808-.710053.62973-1.307007.827652-1.903962 0 0 .040084.062836.369415.029267.73436-1.066498 1.139389-2.099427 1.544418-3.132386 0 0 .036591.119568.256684.015076.343948-.468017.467819-.831482.591705-1.194977 0 0-.005188.206208.257446.110413.453278-.725494.643936-1.355225.834595-1.984924 0 0 .04892.151886.284821.04544.438781-.708954.641677-1.311462.844573-1.913971 0 0 .034348.076142.295228.078522.44165-.646606.622421-1.295624.803192-1.944641 12.773513-16.5961 25.547012-33.1922 38.783203-49.758301.690246-.439178.917801-.908356 1.145355-1.377533.441818-.580612.883621-1.161239 1.85321-1.940903.727967-.512176.928162-.825302 1.128357-1.138412 1.053284-1.216309 2.106553-2.432617 3.733246-3.857178.797852-.533813 1.022263-.859405 1.246674-1.184982 0 0 .002228.179504.198166.080795.390365-.428573.584793-.758438.77922-1.088302 0 0 .019303.173278.218476.080429.389663-.426667.580169-.760498.770691-1.09433 0 0 .022338.177627.220916.090683.396286-.41597.593979-.74501.791657-1.074051 0 0 .019745.171051.218658.080231.392914-.420288.58693-.749756.78096-1.079224 0 0 .01973.169968.218674.080048.394898-.417191.590836-.744446.786774-1.071686 0 0 .029251.168747.227295.068359.39357-.438629.589065-.776886.784576-1.115143-.026123-.315673.097397-.553665.862549-.854354.709289-.468979.926559-.797593 1.143829-1.126206 16.369812-16.703598 34.787842-30.887359 54.187653-43.834473 6.622314-4.419631 13.475647-8.493118 20.754394-12.536224 1.71521-.69104 2.899414-1.570618 4.083619-2.45021 0 0 .011505.077316.299621.03511.757263-.39888 1.226471-.755554 1.695648-1.112213 0 0-.006286.100952.279145.08873.752136-.398728 1.218872-.785233 1.685608-1.171768 0 0 .003784.13298.331359.163711 3.119751-1.650177 5.911927-3.3311 8.704132-5.012009 0 .000016.012085.080094.296601.043366.762176-.379913 1.239837-.723114 1.717529-1.066315 0 0-.00946.078858.344238.079132 1.450867-.683487 2.548096-1.367264 3.645325-2.051025 0 .000015.010162.078842.378265.066223 2.550385-.703476 4.77768-1.278213 6.907563-2.104187 12.817993-4.970901 25.594146-10.050049 38.424408-14.988693 7.073669-2.722794 14.225647-5.242111 21.751861-7.858475 6.80362-1.669769 13.197724-3.334198 20.016907-4.99736 8.461456-1.640579 16.497833-3.282425 24.53421-4.924271 9.388367-1.075088 18.77301-2.18454 28.167023-3.207992 3.643158-.396912 7.307464-.599457 11.698791-.787857 1.870575-.257416 3.004456-.617546 4.138367-.977677.767578-.064483 1.535156-.128975 2.973663.179207 17.498505.802315 34.326142 1.231926 51.153717 1.661552 5.404236.392182 10.808411.784348 16.670716 1.564225.98645.726577 1.491089 1.315551 2.04657 1.368149 19.183471 1.81604 37.778564 6.457931 56.274231 11.603424 6.671142 1.855911 13.373291 3.600082 20.061279 5.395248 0 0-.120545.027283.055725.287842 1.117615.421737 2.059021.582916 3.000366.744095 0 0 .409363-.01677.76117.369217 2.964172 1.121872 5.57666 1.857757 8.189087 2.593643 0 0-.10376.026306 0 .321304 5.428039 2.297119 10.752319 4.299255 16.076538 6.301376 0 0 .086609-.056366.132446.322205 1.645935.949127 3.245911 1.519684 4.845947 2.090225 0 0 .417298-.002334.784241.320664.952881.441284 1.538757.55957 2.124695.677841 0 0-.083191.027756.056823.274368.754334.395676 1.368714.544754 1.983033.693817 0 0-.093506.024079-.053772.17215.31488.109055.590027.070038.865112.031006 30.738586 14.120285 58.799377 32.438598 84.722839 54.09613 3.434815 2.869583 6.7417 5.892243 10.245179 9.521256 1.237182 1.426407 2.337036 2.175567 3.436828 2.924728 0 0-.115478.109863-.087463.348648.396545.376465.765076.51416 1.133545.651886 0 0-.152161.057694-.121399.30719.398254.367355.765747.485199 1.13324.603027 0 0-.09729.440735-.093873.541932.369935.21701.736512.33284 1.103089.448669 0 0-.033569.404053-.0672.523895.32843.22081.690552.321793 1.052674.422791 0 0 .051025.046127.009338.360565.531555.579529 1.104736.844635 1.677978 1.109741 3.553711 3.44574 7.107361 6.89148 10.810486 10.982727.625122.970825 1.100769 1.296189 1.576416 1.621521 0 0-.078247.131867-.120666.384186.325073.385162.692627.518005 1.06018.650848 0 0-.111572.117417-.109375.361878.36847.391327.734864.538193 1.101197.685058 0 0-.140076.092713-.124878.33075.375122.406387.735046.574722 1.095032.743042 0 0-.18219.065918-.136048.287628.40741.386398.768799.551102 1.130127.71582 0 0-.146545-.014785-.177185.305512.663879.801544 1.35846 1.282791 2.052979 1.764038 0 0-.139649.073746-.069275.28949.405151.420273.73999.624817 1.074768.829345 16.719665 17.584839 30.736694 37.211121 43.462097 57.791993 3.555176 5.749786 6.717773 11.742309 9.948242 18.083099.111267.6633.334839.866974.558411 1.070648 0 0-.11322.03421-.154663.370026 2.356384 4.781402 4.754211 9.226959 7.151977 13.672546 0 0-.135132.015717-.142639.288269.360168.766022.727844 1.259461 1.09552 1.752899 0 0-.126831-.003387-.118957.267151.356323.764313.704711 1.258087 1.053161 1.751862 0 0-.092163-.009003-.096496.342651 1.058471 2.438477 2.121398 4.52536 3.184265 6.612213 0 0-.124146.013794-.148255.348664.904114 2.125305 1.832337 3.91571 2.76062 5.706115 2.690247 6.772004 5.380494 13.543976 7.799317 20.917054-.082459 1.855652-.005921 3.139496.312561 4.36026 3.981567 15.262176 7.977478 30.520721 12.049744 45.758819.287292 1.07486 1.203674 1.981568 1.827514 2.966492.443909 3.017456.887818 6.034943 1.251221 9.930786 1.070251 11.889191 2.198669 22.902344 3.384399 33.909363.401306 3.724731.947693 7.433838 1.427796 11.150085.056396.740509.112854 1.481018-.076599 2.794739-.108155 1.794403.029419 3.015656.16748 4.705567.00647 9.489837.012512 18.510986-.128601 27.873413-.00769 2.134399.131714 3.927551.271179 5.720642-.028992.442993-.057983.885986-.440674 1.94342-1.118347 10.44928-1.882934 20.284058-2.647522 30.118836-1.165161 7.942321-2.273925 15.893432-3.516662 23.823608-.744385 4.750061-1.698059 9.467224-2.970337 14.498474-.905152.953491-1.625855 1.536804-1.854492 2.27301-2.230042 7.179688-4.503174 14.350281-6.503662 21.595337-1.257325 4.553345-2.070496 9.229309-3.082947 13.85022 0 0-.028443-.116089-.294251.03009-1.15686 3.354615-2.047912 6.563111-2.939026 9.771607-14.286193 37.632995-34.383422 71.922302-59.636962 103.203857-5.943726 7.362488-12.339478 14.360169-19.174073 21.706299-1.105957.875488-1.565185 1.570435-2.024414 2.26532m-84.827087-132.48468c.146728-.361328.293518-.722718.525024-.955933 0 0-.150451-.031067.479798-.0401.161132-.357117.322326-.714172.552124-.913452 0 0-.16858-.034302.458252-.078797.158813-.358337.317626-.716674.538574-.914001 0 0-.167603-.041138.460144-.086975.151611-.360535.303222-.721131.524658-.934387 0 0-.157898-.040345.470886-.06836.159546-.357788.319092-.715515.492249-.864563 0 0-.087342-.190063.885498.072205 23.281311.041443 46.563904.206116 69.84259-.019898 3.173523-.030822 6.328003-2.011963 9.494141-2.956115 0 0-.129639-.033875.52716.00177.503357-.330445 1.006775-.66095 1.508667-.915772 0 0-.068359-.032532.656556-.089844.574829-.409606 1.149658-.819274 1.894409-1.814819 2.034424-2.264404 4.068908-4.528808 6.730652-7.232605.174011-.698486.347961-1.396973.537414-1.93811 0 0-.151184-.046692.575989-.276734.241699-2.535461.483459-5.070984.596985-8.284301.053283-.45398.106628-.907898.935486-1.550354.363037-1.69159 1.042236-3.382935 1.043579-5.074829.052856-67.748108.058777-135.496277-.034607-203.244294-.002503-1.821533-1.166138-3.641479-1.932556-6.137573.044067-.456085.088073-.91217.691467-1.933044-.407227-2.582276-.814514-5.164521-1.63678-8.225586-1.753601-7.509827-6.64978-12.102478-14.137695-15.366516-1.622803.032836-3.245545.065673-5.622986.230804-.761292-.052093-1.522522-.104187-2.464233-.935455-1.349732-.36612-2.698914-1.048828-4.049256-1.05127-22.678283-.041076-45.356689.002747-68.534424-.127014-.440002-.523773-.880066-1.047577-1.492492-2.16571-.333374-.219452-.666687-.438904-.821717-.658509 0 0-.042236.173279-.188842-.40747-.338196-.182801-.676392-.365601-.839966-.573761 0 0-.028198.174224-.169922-.416535-.348267-.169708-.696533-.339386-.875366-.606842 0 0 .053222.188233-.204468-.456756-.412781-.19397-.825562-.38794-1.829285-.775025-4.663696-4.00354-9.257812-8.091644-14.003662-11.995331-16.616028-13.667694-35.261841-24.047058-54.870422-34.136932-5.810242-2.659668-11.450806-5.81955-17.470703-7.860931-8.868958-3.007477-18.008118-5.217865-26.916077-7.555359 0 0-.194702.143737-.638855-.519745-2.286011-.316956-4.57196-.633881-7.425842-.89502-.169556-.086029-.339173-.172088-.68628-.940429-2.931945-.630951-5.86383-1.261902-9.251098-2.509888-26.892639-5.702454-54.044678-8.102844-81.45575-5.445343-16.274749 1.57782-32.520996 3.638458-48.680236 6.129577-6.920868 1.066895-13.587739 3.781586-21.103638 6.061402-5.068329 1.608185-10.136688 3.216369-15.82132 4.830932-.487915.30832-.975799.616639-1.869598 1.028321 0 0-.418823-.004639-1.097901-.012177-.477539.400391-.955078.800781-1.448608 1.0672 0 0 .133057.0224-.698212-.071503-6.065918 2.13086-12.155304 4.199341-18.172424 6.460144-.898071.337464-1.456604 1.578522-2.88208 2.697388-4.995789 2.658722-9.993225 5.314362-14.98703 7.976746-18.418457 9.819458-34.983276 22.261383-51.419281 36.103149-.268616.388306-.537262.776642-1.022614 1.623108-.531524.39154-1.063079.783081-2.154144 1.349396-.223511.307556-.446991.615081-.677643.790435 0 0 .131775.012604-.394165.205781-.202148.303375-.404297.60675-.733215 1.351867-.179413.282959-.436554.429962-1.726807.395081-23.130127.003662-46.262176-.142426-69.388519.15451-3.974503.050995-7.924805 1.987915-12.307526 3.57016-10.086013 4.087006-12.267303 12.69754-13.353408 22.052735-.377381 1.034423-1.084351 2.068603-1.085129 3.103271-.052231 70.185852-.057587 140.371735.011612 210.557526.001648 1.673523.891647 3.346191 1.860672 5.504516.71083 7.378235 3.653625 13.462097 10.362625 18.189087.634384.269776 1.268783.539551 2.324631.811096 0 0 .401458.128296.760101.798951 3.65596.751342 7.307144 2.124572 10.968674 2.152648 23.289383.178711 46.581039.060608 70.431747.225647.764313.876832 1.528656 1.753602 2.495361 3.185364.321961.209839.643891.419617 1.387452.72583.277191.161255.413177.402283.622772 1.277893.328583.205933.657135.411805 1.396454.691956.277832.144287.413116.372864.616974 1.276245.348541.210938.697052.421936 1.422821.67865.262786.11908.390655.322815.546386 1.230591.335663.238586.671326.477234.820313.705871 0 0 .050049-.180114.201751.40741.348542.169617.697052.339294.875184.608337 0 0-.058503-.188476.208953.455018.415711.192321.831391.384704 1.839081.765808 7.604798 6.137207 14.953675 12.631469 22.883728 18.314819 8.563172 6.137268 17.669617 11.516479 27.020783 17.793457.671509.23175 1.343017.46344 1.926178.719299 0 0-.00589-.091369.267608.486145.600586.166931 1.201172.333924 1.726807.538514 0 0 .017273-.082093.055267.659851 2.000428.771179 4.000855 1.542358 5.937836 2.355896 0 0 .009827-.075623.064575.663452 2.010315.756836 4.0206 1.513672 5.948517 2.297119 0 0-.008697-.086121.277405.498108.615631.147949 1.231293.295959 1.73996.469726 0 0 .003479-.109924.210357.597535 2.297211.791442 4.594422 1.582885 6.787628 2.39569 0 0 .009095-.105773.200043.591553.931854.661865 1.772614 1.591126 2.809601 1.944397 10.663818 3.633118 21.307556 7.341248 32.070831 10.658875 4.536591 1.398376 9.344025 1.91809 14.459503 2.841919 0 0 .42273.085205.888978.660522 13.848388 2.108704 27.696807 4.217407 42.47824 6.352661 17.900483-.325195 35.808106-.453369 53.6969-1.099792 5.140198-.18573 10.226379-1.86731 15.745117-2.944214 0 0 .414917.02716 1.008057.073791.197876.004151.395752.008301 1.449035.026734 14.737183-.778931 28.566346-5.678223 42.634644-9.471558.578369-.155884.906921-1.238098 1.425659-1.766846 0 0-.139404.02948.693359.151001 3.437684-1.380004 6.875306-2.76007 10.326111-4.027893 0 0-.111328-.019043.710022.047486 3.092713-1.384217 6.185425-2.768433 9.287598-4.042542 0 0-.108337-.022217.688476.043274 2.086854-1.076538 4.173768-2.153137 6.283509-3.094971 0 0-.134155-.026062.545349.038086.493591-.372192.987121-.744384 1.480225-.988525 0 0-.123719-.033203.538146.000488.496949-.346191.993958-.692383 1.481995-.951782 0 0-.083374-.025696.55835-.048096.48529-.335937.97052-.671814 1.451538-.931518 0 0-.068787-.033081.728515-.013611 2.415528-1.358704 4.831116-2.717468 7.263184-3.992859 0 0-.077026-.035767.573669-.058655.473145-.362793.946351-.725525 1.413636-.978454 0 0-.105713-.030457.561828-.02887.474121-.379944.948243-.759888 1.422242-1.005798 0 0-.128968-.036011.554992.007812.469788-.402222.939575-.804504 1.420288-1.056335 0 0-.14508-.04126.609803.08081.814697-.671447 1.629394-1.342956 2.45642-1.938965 0 0-.064697-.040832.582703-.084533.461121-.373963.92218-.747925 1.380066-.998169 0 0-.11853-.035889.643799.045166 1.024536-.811768 2.049072-1.623535 3.207092-2.339356 0 0-.143738.079834.45282.082764.227722-.302795.455505-.605591.685974-.792847 0 0-.110779-.03302.641419.045655.793701-.685791 1.587341-1.371643 2.395385-1.975464 0 0-.074646-.036865.584473-.067078.454895-.392334.909851-.784668 1.384094-1.005676 0 0-.171753-.015869.369324-.137329.226257-.275025.452576-.55011.68219-.763123 0 0-.049439-.037536.601868-.108032.445068-.400147.890197-.800232 1.500854-1.631592.234375-.239502.517273-.334228 1.577087-.301086.770813-.672364 1.541626-1.344666 2.322815-1.958557 0 0-.047241-.035889.60669-.102417.441101-.408448.882263-.816895 1.468262-1.641541.218322-.230225.485534-.330994 1.560974-.286499.771301-.730163 1.542602-1.460388 2.469848-2.638061.215027-.273316.495545-.39209 1.590088-.36969.752136-.725037 1.504273-1.450074 2.399353-2.620606.203308-.27771.476502-.402832 1.578552-.37439.754273-.741882 1.508484-1.483764 2.569825-2.807983 6.591735-5.716431 13.183532-11.4328 20.02655-16.81958.077393-.26178.154846-.523621.331055-.782532 0 0-.007874.098511.625244.094361z"/>
  <path fill="#A81A1F" d="M124.960022 490.974976c-.310463 12.681854-1.172485 25.381347-.767273 38.040283.363083 11.343139 1.869461 22.674377 3.333115 33.950866 1.541748 11.878235 3.640014 23.683899 5.454315 35.527527.094284.615479-.193985 1.28949-.576904 2.200928-7.787743-31.011658-10.645127-62.754822-9.79918-94.867981.122376-4.645508.282181-9.290008.796044-14.384827.76754-.455474 1.163719-.46112 1.559883-.466796z"/>
  <path fill="#A7171C" d="M642.977966 148.59021c-6.511657-1.480835-13.213806-3.225006-19.884948-5.080917-18.495667-5.145493-37.09076-9.787384-56.274231-11.603424-.555481-.052598-1.06012-.641572-1.691224-1.353074 14.965394 2.347641 30.143555 4.580887 45.065491 7.949158 11.042298 2.492539 21.75116 6.46228 32.784912 10.088257z"/>
  <path fill="#A61319" d="M528 899.012451c1.55835-.336914 3.110718-.935364 4.675964-.971252 22.359681-.513489 44.375977-3.649048 66.187134-8.447876 1.754639-.386048 3.592285-.394776 5.832581-.546692-9.781617 2.314636-19.907166 5.321838-30.250122 6.708313-15.097779 2.023987-30.351624 2.883606-45.994629 3.955017-.455628-.284668-.450928-.69751-.450928-.69751z"/>
  <path fill="#A9191E" d="M405.009277 142.033203c-7.116668 2.611054-14.268646 5.130371-21.342315 7.853165-12.830262 4.938644-25.606415 10.017792-38.424408 14.988693-2.129883.825974-4.357178 1.400711-6.940583 2.082077 18.784943-10.245727 39.160675-17.492905 59.836457-23.986908 2.034057-.63887 4.061035-1.300232 6.47763-1.668823.386322.282318.393219.731796.393219.731796zM895.885742 437.570801c-.682922-.578369-1.599304-1.485077-1.886596-2.559937-4.072266-15.238098-8.068177-30.496643-12.049744-45.758819-.318482-1.220764-.39502-2.504608-.318909-3.98935 4.948242 17.147065 9.631287 34.524292 14.255249 52.308106z"/>
  <path fill="#A7171C" d="M613.44812 887.137207c4.353821-1.680847 9.119141-3.40387 13.894653-5.098267 11.088257-3.934143 22.175904-7.870178 33.278809-11.762695 1.551636-.543945 3.187927-.846496 5.185791-1.237121-10.713013 4.341125-21.746826 8.882934-32.972412 12.886962-6.156433 2.195862-12.636536 3.484375-19.386841 5.211121z"/>
  <path fill="#A51016" d="M415.369751 888.090454c1.637482-.113342 3.67688-.359253 5.615784-.023926 13.241882 2.290528 26.463806 4.696778 39.684723 7.106507.405487.073852.729705.593383 1.194671 1.273193-10.680389-1.353088-21.483917-2.958862-32.237488-4.848572-4.686828-.823486-9.271301-2.22937-14.25769-3.507202z"/>
  <path fill="#A30C11" d="M547.896973 128.611588c-16.623047-.067719-33.450684-.49733-50.569519-1.222565 16.594116.089828 33.479553.475242 50.569519 1.222565z"/>
  <path fill="#A51016" d="M369.868561 873.409912c3.425812.644898 7.075104 1.510986 10.655426 2.60315 9.769348 2.980224 19.516784 6.033203 29.251037 9.126159 1.048829.333252 1.95456 1.11676 3.04361 2.062439-14.174744-4.24176-28.4664-8.854553-42.950073-13.791748z"/>
  <path fill="#A61319" d="M901.949219 492.582886c-.539246-3.331543-1.085633-7.04065-1.486939-10.765381-1.18573-11.007019-2.314148-22.020172-3.445801-33.487366 1.173218 5.763703 2.725647 11.942047 3.384339 18.214264.894043 8.513611 1.104126 17.099091 1.548401 26.038483zM143.624512 387.023743c-1.797638 7.818176-3.880616 15.819824-6.076981 23.790252-1.476944 5.359711-3.114212 10.675232-5.035766 16.086274 3.355712-13.184937 7.067428-26.445618 11.112747-39.876526z"/>
  <path fill="#A9191E" d="M881.415527 641.965271c.704163-4.421326 1.517334-9.09729 2.774659-13.650635 2.000488-7.245056 4.27362-14.415649 6.503662-21.595337.228637-.736206.94934-1.319519 1.711181-1.859863-3.380798 12.378052-7.030945 24.642151-10.989502 37.105835z"/>
  <path fill="#A51016" d="M466.157837 897.476013c3.390442-.398254 7.014557-.647278 10.611877-.437256 7.167176.418396 14.319672 1.088929 21.858612 2.024475.380402.369141.380982.770752.380982.770752-10.876648-.667053-21.753296-1.334106-32.851471-2.357971z"/>
  <path fill="#A61319" d="M899.391785 565.941895c.408142-9.652466 1.172729-19.487244 2.216186-29.611939-.434021 9.616638-1.14685 19.523132-2.216186 29.611939z"/>
  <path fill="#A7171C" d="M449.538025 131.990723c-7.604462 1.757385-15.640839 3.399231-24.105988 4.817047-.428772-.22403-.43399-.668961-.43399-.668976 8.036011-1.421204 16.072052-2.842423 24.539978-4.148071z"/>
  <path fill="#A30C11" d="M124.971634 490.517059c-.407776.463593-.803955.469239-1.497665.472992.37284-8.20636 1.043235-16.410888 2.069-24.829712.358879 3.90915.483925 8.037079.330795 12.154694-.145798 3.920349-.582001 7.829834-.90213 12.202026z"/>
  <path fill="#A7171C" d="M137.045425 615.972961c2.199494 7.509766 4.398987 15.019471 6.33371 22.759766-2.622421-7.163635-4.980057-14.5578-7.074081-22.347412.263611-.395447.740371-.412354.740371-.412354z"/>
  <path fill="#A61319" d="M129.564758 440.147156c-.054046 4.27948-.318924 8.770233-.899566 13.219818-.328431 2.516907-1.175568 4.966095-2.164704 7.529541.65667-6.795929 1.68898-13.675598 3.06427-20.749359zM424.601562 136.082504c.396485.056305.401703.501236.405396.723999-6.390411 1.887192-12.784515 3.551621-19.588135 5.221375-.409546.005325-.416443-.444153-.415588-.668915 6.401184-1.927429 12.801514-3.630096 19.598327-5.276459zM167.551422 330.970459c-2.181305 5.13092-4.652496 10.453888-7.478332 15.848572 2.159698-5.171021 4.674072-10.413727 7.478332-15.848572z"/>
  <path fill="#9D0608" d="M499.472565 899.905457c-.463257-.071473-.463837-.473084-.46109-.673523 9.352264-.210877 18.701782-.221192 28.519897-.225525.468628.006042.463928.418884.460449.625305-9.354309.252685-18.705169.29895-28.519256.273743z"/>
  <path fill="#A7171C" d="M671.029297 159.26767c-5.116333-1.747773-10.440613-3.749909-15.867554-6.100525 5.151428 1.716385 10.405518 3.78128 15.867554 6.100525z"/>
  <path fill="#9D0608" d="M901.999512 528c-.006043-9.021118-.012085-18.042267.200134-27.531403.218262-.468017.655212-.455932.655212-.455932.043641 9.016113.08722 18.032196-.149658 27.516754-.280578.468506-.705688.470581-.705688.470581z"/>
  <path fill="#A61319" d="M866.180969 346.539124c-2.32843-4.079804-4.726257-8.525361-7.073852-13.365235 2.368286 4.070282 4.686401 8.534882 7.073852 13.365235z"/>
  <path fill="#A51016" d="M689.375061 858.896973c3.111206-1.945862 6.580505-3.896973 10.443054-5.801392-3.099487 1.963135-6.592224 3.879578-10.443054 5.801392z"/>
  <path fill="#A9191E" d="M331.601074 169.969543c-2.440246 1.619233-5.232422 3.300156-8.416015 4.931641 2.427093-1.656265 5.245575-3.263122 8.416015-4.931641zM878.020264 651.631409c.744812-2.873352 1.635864-6.081848 2.852539-9.436768-.685059 2.936279-1.695618 6.018921-2.852539 9.436768z"/>
  <path fill="#A81A1F" d="M132.427551 602.39563c.833512 1.830566 1.739243 4.024109 2.609818 6.65741-.869293-1.804993-1.703446-4.049683-2.609818-6.65741z"/>
  <path fill="#A7171C" d="M654.921143 152.628326c-2.372925-.464874-4.985413-1.200759-7.753846-2.262329 2.400818.446656 4.957581 1.218994 7.753846 2.262329z"/>
  <path fill="#A61319" d="M154.566849 358.011414c-.565201 2.158844-1.418656 4.536407-2.625534 7.113281.543487-2.165344 1.440384-4.529938 2.625534-7.113281zM871.171143 357.560364c-1.008851-1.727265-2.071778-3.814148-3.116455-6.296814 1.032897 1.71521 2.047607 3.826233 3.116455 6.296814zM901.852417 528.341309c.147095-.341309.572205-.343384.784729-.348267.194641 1.873718.176758 3.752441-.177429 5.849976-.475647-1.574158-.615051-3.36731-.6073-5.501709zM157.650818 351.084473c-.546829 2.067077-1.363724 4.359131-2.543594 6.737854.515853-2.11319 1.394683-4.313019 2.543594-6.737854z"/>
  <path fill="#A51016" d="M154.829529 668.434937c1.003036 1.719482 2.065933 3.79663 3.127807 6.266357-1.02333-1.707886-2.045639-3.80835-3.127807-6.266357z"/>
  <path fill="#A61319" d="M873.840576 363.629364c-.931335-1.445038-1.859558-3.235443-2.75238-5.42218.942077 1.42807 1.848755 3.252441 2.75238 5.42218z"/>
  <path fill="#A51016" d="M680.441162 863.186157c1.43396-1.014892 3.220398-2.09552 5.387512-3.151916-1.42456 1.044922-3.229797 2.065551-5.387512 3.151916z"/>
  <path fill="#A61319" d="M173.612885 320.027863c-.587235 1.752655-1.459183 3.698059-2.715271 5.627838.554107-1.822113 1.49234-3.628601 2.715271-5.627838z"/>
  <path fill="#A9191E" d="M318.637512 176.972794c-.864197.823104-2.048401 1.702682-3.422302 2.332565.907593-.92514 2.004944-1.600601 3.422302-2.332565z"/>
  <path fill="#A61319" d="M902.930664 499.645386c-.075806.367279-.512756.355194-.731445.354492-.356323-1.221893-.493897-2.443146-.355225-3.865967.571777.913635.867127 2.028931 1.08667 3.511475z"/>
  <path fill="#A30C11" d="M493.600494 127.08226c-.760284.410607-1.894165.770737-3.345123 1.013657.779144-.432839 1.875336-.748474 3.345123-1.013657z"/>
  <path fill="#A7171C" d="M780.22522 230.366974c-.944458-.469727-2.044312-1.218887-3.131714-2.355393 1.000305.433747 1.988342 1.254853 3.131714 2.355393z"/>
  <path fill="#A51016" d="M151.797134 661.415039c.674881 1.073303 1.417572 2.492981 2.154175 4.304932-.699508-1.057923-1.392929-2.50824-2.154175-4.304932z"/>
  <path fill="#A7171C" d="M222.863037 772.477295c.899429.533569 1.922714 1.35498 2.835785 2.552429-.977447-.504211-1.844681-1.384399-2.835785-2.552429zM676.044312 161.624329c-1.428772-.260422-3.028748-.830979-4.623841-1.789582 1.487488.234452 2.970032.856964 4.623841 1.789582z"/>
  <path fill="#A9191E" d="M337.627197 166.959442c-.7677.637344-1.864929 1.321121-3.352874 1.990387.747283-.657669 1.885284-1.300812 3.352874-1.990387z"/>
  <path fill="#A61319" d="M176.575623 314.971375c-.243195 1.111145-.764664 2.403167-1.675843 3.685791.20604-1.174561.801789-2.339722 1.675843-3.685791z"/>
  <path fill="#A51016" d="M674.35083 865.945923c.790405-.649597 1.917603-1.274536 3.43042-1.873779-.77417.649902-1.933899 1.274108-3.43042 1.873779z"/>
  <path fill="#A7171C" d="M669.404541 868.164551c.427612-.673157 1.174866-1.397217 2.256714-1.90564.334656.215637.325561.697266.325561.697266-.754272.385803-1.508483.771667-2.582275 1.208374z"/>
  <path fill="#A51016" d="M149.760193 656.412964c.489364.572021 1.050232 1.478454 1.329101 2.542908-.607193-.630799-.932388-1.419739-1.329101-2.542908z"/>
  <path fill="#A61319" d="M179.597595 309.970642c-.1315.868652-.536529 1.901581-1.307861 2.96341.100586-.913788.567459-1.856446 1.307861-2.96341zM605.404541 889.132141c.746338-.353393 1.875-.737121 3.394348-1.099609-.743591.370605-1.877807.719909-3.394348 1.099609z"/>
  <path fill="#A7171C" d="M804.161499 254.524612c-.57727-.208099-1.271851-.689346-1.882324-1.541595.644348.175491 1.204712.72197 1.882324 1.541595z"/>
  <path fill="#A61319" d="M183.850235 303.232513c.008362.433777-.172409 1.082795-.655228 1.722382-.04599-.508697.210053-1.007904.655228-1.722382z"/>
  <path fill="#A81A1F" d="M135.218292 609.389038c.614701.927551.738159 1.950928.869141 3.487366-.448456-.788452-.904434-2.089966-.869141-3.487366z"/>
  <path fill="#A51016" d="M797.306335 778.993164c.191407-.54602.650635-1.240967 1.456299-1.982178-.165161.580201-.676819 1.206726-1.456299 1.982178z"/>
  <path fill="#A7171C" d="M646.028442 149.622086c-.759399.153213-1.700805-.007966-2.820678-.491456.760498-.155853 1.699585.010605 2.820678.491456z"/>
  <path fill="#A51016" d="M158.591522 676.579712c.409241.388061.882294 1.099121 1.343994 2.186157-.43428-.370422-.857223-1.11676-1.343994-2.186157z"/>
  <path fill="#A61319" d="M169.668304 327.033722c.07663.429687-.096176 1.042877-.571838 1.785797-.094437-.447632.113983-1.024963.571838-1.785797zM867.152039 348.633972c-.316529-.181335-.684205-.674774-1.031067-1.507507.340515.172302.660217.683868 1.031067 1.507507zM159.566284 346.942749c.11705.461426-.031479 1.097778-.497848 1.862061-.134461-.477082.048904-1.082154.497848-1.862061zM168.622345 328.989258c.090424.45166-.083466 1.073242-.574142 1.814483-.107926-.468414.100952-1.056488.574142-1.814483zM158.59256 348.966431c.129165.453521-.006668 1.082489-.442749 1.85556-.140915-.463989.018417-1.072022.442749-1.85556z"/>
  <path fill="#A51016" d="M153.928162 666.337463c.298385.190796.634155.693238.961547 1.527405-.313644-.184082-.618896-.69989-.961547-1.527405z"/>
  <path fill="#A7171C" d="M798.391968 248.309204c-.36023-.065536-.835877-.3909-1.340332-1.051926.389038.040253.806946.416184 1.340332 1.051926zM227.612198 777.667114c.360031.065613.833679.39325 1.340011 1.053711-.387008-.042114-.806701-.416931-1.340011-1.053711z"/>
  <path fill="#A51016" d="M780.291687 795.93927c-.052246-.243652.134644-.574646.56781-.908264.054627.27185-.136963.546448-.56781.908264zM160.529678 680.785034c.293274.108643.673981.464234.825394.995545-.398865-.132386-.568405-.440552-.825394-.995545z"/>
  <path fill="#A61319" d="M868.093506 350.655518c-.304566-.184205-.652954-.677979-.993225-1.503663.321899.176758.63562.685425.993225 1.503663zM181.545624 306.907806c.075271.473816-.115387 1.103547-.661133 1.783295-.104981-.509094.145111-1.068268.661133-1.783295zM610.334229 888.080505c.132324-.409912.597106-.733032 1.363525-.859802.301636.19635.29895.615357.29895.615357-.443359.110412-.886719.220886-1.662475.244445z"/>
  <path fill="#A7171C" d="M667.328125 868.97937c.202637-.328613.716003-.612121 1.545532-.873779-.200805.320862-.717773.619873-1.545532.873779z"/>
  <path fill="#A81A1F" d="M137.023468 615.520569c.021957.452392-.454803.469299-.693283.474975-.336533-.83905-.434601-1.683776-.101791-2.623291.544952.502137.659027 1.098999.795074 2.148316z"/>
  <path fill="#A7171C" d="M785.996338 235.711456c-.449097-.01181-1.022278-.276916-1.529297-.880493.512573-.016601.958862.305283 1.529297.880493z"/>
  <path fill="#A9191E" d="M333.667297 168.927368c-.177826.300751-.655487.643952-1.452484 1.003174.171326-.309555.661957-.635132 1.452484-1.003174z"/>
  <path fill="#A61319" d="M177.725586 313.103027c.033783.403382-.164139 1.000336-.667053 1.712036-.058228-.429626.188553-.97406.667053-1.712036zM182.691376 305.060455c.046676.425446-.15622 1.027954-.674805 1.735779-.068695-.449371.178268-1.004028.674805-1.735779z"/>
  <path fill="#A7171C" d="M680.974365 163.656433c-.424316.095642-1.038696-.053436-1.798645-.492569.439148-.110748 1.023926.068558 1.798645.492569zM678.931274 162.698395c-.3927.116287-.978576-.001999-1.735962-.370209.399903-.121399.971314.007111 1.735962.370209z"/>
  <path fill="#A9191E" d="M322.615479 174.823608c-.164673.319092-.631409.705597-1.431824 1.089264.154114-.342514.641907-.68219 1.431824-1.089264zM320.657867 175.899857c-.174255.296005-.643463.652679-1.433746 1.030624.165497-.309128.652161-.639557 1.433746-1.030624z"/>
  <path fill="#A51016" d="M223.742218 251.99881c-.001846.351806-.229401.820984-.613678 1.119873.024857-.447708.206421-.725113.613678-1.119873zM678.359863 864.138733c.182068-.314575.67804-.678345 1.513245-1.021973-.173584.337647-.686462.655213-1.513245 1.021973z"/>
  <path fill="#A7171C" d="M612.256104 887.867432c-.2594-.031372-.256714-.450379-.255982-.659912.185181-.205323.369629-.20105.830933-.167725.079406.305664-.118042.582336-.574951.827637zM805.162964 255.650146c-.213501.061921-.54834-.142623-.964539-.641082.226807-.071076.534973.151779.964539.641082zM802.300964 252.46106c-.259338.102432-.620727-.062272-1.014709-.544602.282532-.119278.597595.079086 1.014709.544602zM801.314331 251.458801c-.265442.097641-.625366-.070694-.991211-.560547.294983-.116165.595764.089188.991211.560547z"/>
  <path fill="#A51016" d="M672.264282 866.945679c-.277466.010498-.268371-.471131-.268066-.712342.2005-.236633.400696-.231994.901489-.201233.081726.318421-.137146.610779-.633423.913575z"/>
  <path fill="#A61319" d="M180.456772 308.743011c.138855.246918.014984.610383-.391495 1.078827-.145477-.250793-.008346-.606506.391495-1.078827zM859.203735 332.638367c-.174316.020294-.397888-.18338-.457031-.499909.164368-.112854.407776.27591.457031.499909zM170.412506 325.752472c.163315.245331.070648.609283-.294723 1.085693-.168885-.247375-.065064-.607238.294723-1.085693z"/>
  <path fill="#A7171C" d="M221.834976 771.348572c.212586-.063477.549286.138183.972702.632019-.225052.07251-.536819-.147156-.972702-.632019z"/>
  <path fill="#A61319" d="M174.417526 318.75116c.155838.246032.055527.609649-.321518 1.081421-.162689-.249176-.04866-.606537.321518-1.081421z"/>
  <path fill="#A7171C" d="M225.673706 775.567505c.267639-.104065.630844.055664.998962.538208-.297851.123718-.600601-.075379-.998962-.538208zM226.653229 776.611511c.273437-.112854.640152.032532.999298.502136-.307068.134827-.606537-.054565-.999298-.502136z"/>
  <path fill="#A51016" d="M687.297302 859.906982c-.040161-.238281.191712-.472961.669129-.781494.031433.212525-.182862.498902-.669129.781494zM700.345703 853.185547c-.015503-.168274.193298-.390076.513489-.446839.111389.16504-.289185.393372-.513489.446839zM235.642029 239.864594c.072098.221069-.121918.550537-.600739.964996-.078323-.228882.128159-.54274.600739-.964996zM231.65097 243.86705c.054032.218491-.170379.544083-.686187.962158-.05835-.223358.174698-.539215.686187-.962158z"/>
  <path fill="#A7171C" d="M681.76178 164.001221c-.061157.142105-.336304.181122-.647583.023925-.036194-.196228.433655-.126983.647583-.023925z"/>
  <path fill="#A51016" d="M232.639709 242.860641c.072663.22168-.121765.551545-.600997.967392-.078568-.22908.12767-.544143.600997-.967392zM233.628693 241.847794c.076751.224594-.113755.558425-.590363.978775-.083038-.232178.120026-.550858.590363-.978775zM234.640793 240.862274c.070068.221955-.127625.550995-.613175.960266-.076751-.230911.134339-.542038.613175-.960266zM236.64801 238.872681c.069657.219116-.126281.546371-.606537.957641-.075882-.227157.132523-.538345.606537-.957641zM237.665222 237.850143c.064743.205887-.130752.544144-.609924.984238-.072571-.216064.13855-.533966.609924-.984238zM239.668579 235.868103c.046005.197723-.171265.526337-.67276.959778-.052963-.206406.178269-.517624.67276-.959778z"/>
  <path fill="#A7171C" d="M784.352051 234.257874c-.281006.135574-.643128.034591-.969483-.38852.320008-.164108.604248-.006088.969483.38852zM783.360657 233.304474c-.279541.127457-.646118.011627-.980896-.427796.319214-.154235.606506.015137.980896.427796zM782.344604 232.309021c-.27362.13031-.641113.012466-1.006713-.429398.305542-.155593.609192.012833 1.006713.429398zM781.320923 231.386551c-.262756.122665-.631287-.01503-1.039185-.470383.284912-.141754.609192.034119 1.039185.470383zM800.345459 250.393326c-.273071.110779-.639465-.036087-.994873-.50734.3078-.133026.604736.058335.994873.50734z"/>
  <path fill="#A51016" d="M159.898712 679.33606c.243012-.056519.531601.175048.812943.699829-.26062.058288-.513993-.176697-.812943-.699829zM157.955948 675.311035c.233368-.040161.505508.202759.771484.736328-.248352.042786-.490524-.205261-.771484-.736328z"/>
  <path fill="#A7171C" d="M799.35498 249.351868c-.275634.119323-.643188-.01352-.994384-.470764.311706-.143403.607116.037597.994384.470764z"/>
  <path fill="#A51016" d="M226.696106 248.922821c.053192.192413-.147003.505539-.609589.927628-.056198-.19632.149994-.501603.609589-.927628z"/>
  <path fill="#FBFAF0" d="M711.003845 647.015869c-6.591736 5.716431-13.183533 11.4328-20.224243 17.555969-1.259277 1.071289-2.06958 1.735779-2.879883 2.400269-.343017-.027466-.616211.097656-1.183899.711487-1.170837.990112-1.977234 1.643982-2.78363 2.297912-.345886-.035827-.626404.082947-1.220398.687683-1.202698.98462-2.02655 1.637757-2.850342 2.290894-.315979-.028748-.583191.072021-1.155029.620117-.825256.675354-1.296936 1.032776-1.768677 1.390259 0-.000061.047241.035828-.255615.093628-1.117981.677734-1.933228 1.297668-2.748474 1.917602-.331299-.049987-.614197.044739-1.213562.602906-.839051.673645-1.313111 1.028503-1.787171 1.383423 0 0 .049439.037536-.222412.063598-.498413.303528-.724914.580994-.951416.858521 0 0 .171753.015869-.131897.012085-.782287.343994-1.260925.691833-1.739502 1.039673-.000061 0 .074585.036865-.242492.064819-1.154847.64154-1.992676 1.255188-2.830506 1.868835 0 0 .110779.03302-.164551.045777-.519287.267517-.763244.522339-1.007202.77716 0 0 .143738-.079834-.22998-.022461-1.447693.771851-2.521729 1.48639-3.595703 2.200928 0 0 .11853.035889-.174927.042969-.773621.349609-1.253784.6922-1.734009 1.03479 0 0 .064697.040832-.253784.065674-1.176575.613891-2.034729 1.202942-2.892822 1.791992 0 .000061.14508.041321-.167603.034241-.805664.335144-1.298584.677368-1.791565 1.019592 0 0 .128968.036011-.173523.037414-.797485.335206-1.292358.669007-1.787292 1.002808 0 0 .105713.030457-.192017.030518-.787353.333801-1.276977.667541-1.766601 1.001281 0 0 .077026.035767-.280701.059449-2.806091 1.332336-5.254395 2.640991-7.702759 3.949707 0 0 .068787.033081-.23053.035217-.797485.318726-1.295715.635254-1.793945.951782 0 0 .083374.025696-.222839.020813-.816712.304383-1.32721.613648-1.837647.922974 0 0 .123719.033203-.187134.023804-.823486.305053-1.336181.619445-1.848876.933837 0-.000061.134155.026001-.232911.03064-2.482422 1.011414-4.597839 2.018128-6.713256 3.024841 0 0 .108337.022217-.267945.023072-3.495056 1.325622-6.61383 2.65039-9.732666 3.975158 0 0 .111328.019043-.276367.013611-3.848877 1.300354-7.310059 2.606079-10.771179 3.911804 0 0 .139404-.02948-.287415-.019653-15.120544 3.469788-29.814209 6.929688-44.772705 10.350952-.477539.242371-.690246.523316-.902954.80426 0 0-.414917-.02716-1.054687-.086364-7.896119.680114-15.137513 1.790344-22.411805 2.082641-15.772522.633606-31.561889.848877-47.717529 1.055176-6.017975-.97937-11.661804-1.785644-17.30777-2.576355-8.102386-1.134643-16.20636-2.257995-24.309631-3.386169 0-.000061-.42273-.085266-.820892-.425049-16.643006-5.494141-32.887848-10.648438-49.132721-15.802734 0 0-.009095.105773-.186585-.171875-2.390655-1.126954-4.603851-1.976197-6.817016-2.825501 0 0-.003479.109924-.134125-.153381-.718933-.439087-1.30716-.614868-1.895386-.79065-.00003 0 .008667.086121-.168884-.191528-2.060303-1.104675-3.942993-1.93158-5.825714-2.758545 0 0-.009827.075623-.21521-.189392-2.060395-1.120972-3.915436-1.976868-5.770447-2.832825 0 0-.017273.082093-.174286-.169189-.719116-.455811-1.281219-.660279-1.843292-.864746 0 0 .00589.091369-.172638-.198792-.862152-.525574-1.545746-.760925-2.22934-.996277-8.869476-5.709839-17.975921-11.08905-26.539093-17.226318-7.930053-5.68335-15.27893-12.177612-23.36084-18.697144-.861206-.597168-1.24533-.812072-1.629425-1.026977 0 0 .058503.188476.033173-.126343-.350708-.50354-.676147-.692322-1.001556-.881042 0 0-.050049.180114-.062531-.105347-.331848-.536926-.651215-.788391-.970581-1.039795.007019-.288391-.12085-.492126-.71875-.896851-.656342-.518249-.9776-.750793-1.298828-.983398.007263-.312988-.128021-.541565-.749085-.97644-.65155-.512452-.959808-.734375-1.268066-.956299.005249-.320679-.130737-.561707-.744629-1.029114-.642181-.528992-.947662-.75177-1.253143-.974609-.764313-.876831-1.528656-1.753601-2.787384-3.078064-3.344574-.846497-6.189697-1.548767-9.045746-1.596619-24.071838-.40271-48.145676-.68573-72.218903-1.0047 0 0-.401458-.128296-.775085-.424255-.972733-.602295-1.571838-.90863-2.170944-1.214905-6.48906-4.027222-9.431855-10.111084-10.211304-18.176697-.084137-73.208374-.099655-145.729461-.115173-218.250549.482742-9.582581 2.664032-18.193115 13.388687-22.595947 3.75563-.677887 6.871414-1.340912 9.989853-1.35376 22.123459-.091248 44.247757-.001892 66.370803-.134918 1.887726-.011353 3.76825-1.221161 5.6521-1.874237.3349-.011048.592041-.158051 1.087494-.772309.525085-.625457.7341-.919586.943115-1.213745 0 0-.131775-.012604.138184-.052154.50235-.334931.734772-.63031.967193-.925659.531556-.391541 1.063111-.783082 2.004242-1.578705.707795-.755768 1.006012-1.107453 1.304261-1.459107 15.744751-13.601684 32.30957-26.043609 50.728027-35.863067 4.993805-2.662384 9.991241-5.318024 15.703461-8.148163 7.534088-3.078339 14.351715-5.98526 21.169342-8.892182 0-.00003-.133057-.02243.197509-.003601.819428-.346954 1.308289-.712707 1.79712-1.078491 0 0 .418823.004639.942688.02417 1.003265-.338409 1.482666-.69632 1.962036-1.05423 5.068329-1.608185 10.136688-3.216369 15.981933-4.905365 1.439789-.11792 2.116364-.081512 2.763428-.20285 17.255676-3.235138 34.385407-7.664764 51.788055-9.479889 32.22342-3.361023 64.471528-2.296997 96.741181 4.356537 3.113525.706299 5.856018 1.279938 8.598572 1.853577.169677.086029.339294.172088 1.182129.33786 2.847778.546081 5.022277 1.01242 7.196716 1.478759 0 0 .194702-.143737.296814.120789 14.951599 5.457581 29.801147 10.650696 44.650696 15.843781 19.242553 9.397857 37.888366 19.777221 54.504394 33.444915 4.74585 3.903687 9.339966 7.991791 14.479553 12.377411.854309.600708 1.232666.819336 1.611084 1.037934 0 0-.053222-.188233-.027954.124877.347412.50354.669617.694001.991822.884491 0 0 .028198-.174224.049438.102814.335938.477173.650635.677338.965332.877472 0 0 .042236-.173279.062256.105805.338013.51062.656067.742187.974121.973754.440002.523804.880066 1.047608 1.789429 2.004334 1.657837.835602 2.845764 1.587494 4.034729 1.589111 22.753296.031189 45.506653-.025879 68.26001-.064636.761291.052124 1.522521.104218 3.101623.156616 2.303223.137116 3.788696.273987 5.27417.410828 7.018921 2.622101 11.9151 7.214752 13.800049 15.439453.403015 3.168426.67456 5.621948.946045 8.0755-.044007.456086-.088013.912171-.115845 2.170716.014404 24.418792-.001587 48.035064.01355 71.651367.030456 47.397095.07782 94.79425.118225 142.191345-.053284.45398-.106629.907898-.155884 2.098328-.440002 3.083618-.884094 5.430786-1.328186 7.777893 0 0 .151184.046692-.134521.191467-.48346.84082-.681214 1.536743-.879029 2.232727-2.034424 2.264405-4.068908 4.528809-6.542846 7.172425-1.019654.750488-1.599732 1.121704-2.17981 1.492919 0 0 .068359.032532-.23822.033143-.824036.293579-1.341431.586547-1.858887.879516 0 0 .129639.033875-.294617.018433-4.032287.367859-7.638671 1.06427-11.248535 1.082886-21.10199.109008-42.205017.021545-63.307007.132019-1.779235.009338-3.553283.986633-5.329773 1.514282 0 0 .087342.190063-.179382.183044-.462585.295166-.658447.597412-.854309.899597 0 0 .157898.040345-.135254.067994-.481872.335998-.670593.644287-.859253.952575 0 0 .167603.041138-.124267.060364-.485779.325928-.679688.632568-.873597.93927.000061 0 .168641.034302-.124877.050232-.491944.312866-.690369.609741-.888855.906555 0 0 .150451.031067-.145447.064148-.484741.330994-.673462.629028-.862244.927002 0 0 .007874-.098511-.199524-.026367-.207397.072082-.374939.380737-.374939.380737M337.482971 527.97937c.170258.018738.340485.037415.705689.578613.089691.162842.179351.325684.080719 1.402832-.025238 10.783509-.094086 21.567139-.066071 32.350525.049133 18.905213.157654 37.810303.051209 57.503662-.660065 3.681397 2.080932 2.548279 3.786865 2.552796 18.147064.048157 36.29425.035583 54.441406.039551 2.606079.000549 5.212158.000061 7.995728.000061V392.782471h-66.289795c.108459 2.243103.203888 4.217224.086273 7.110565-.074707 27.041443-.149384 54.082855-.2724 81.103912 0 0 .013885.050568-.92218.137085-8.351135-.066192-16.70224-.132385-25.086762-.167908 0 0 .033997.029938.006775-.906616V392.69339h-65.694183v229.511505h65.609253c0-31.235535 0-62.209656.234314-93.678406.29248-.211059.584991-.42218 1.809082-.549682 7.677582-.049256 15.355163-.098511 23.524078.002563m351.464234 22.108826c8.034484.002807 16.068969.005615 24.354492.36737.205383.210328.434997.389466.64386 1.475037v70.412781c21.44519 0 42.428405.012939 63.411438-.049805.797546-.00238 1.592956-.736206 2.583435-1.93396-.129029-4.17102-.258118-8.34198-.369751-13.429382.020263-31.926697.040466-63.853455.372314-96.392975-.35144-.46225-.702881-.9245-1.975525-1.449188-13.652527-.043946-27.305114-.087891-40.961059-1.063568.005188-7.308258.010376-14.616547.944885-22.026093h40.821167v-93.270752h-64.636963c0 12.584564 0 24.899933-.170898 37.910248.056701.470276.113403.940521.073974 2.337463.038208 10.319733.076416 20.639435-.071167 31.532074-.314575.480011-.62915.960053-1.870239 1.265473-8.124512-.019043-16.249023-.038086-24.443848-.287262 0 0-.38916-.26062-.386474-1.23938v-71.450806h-65.169068v229.372437c21.791321 0 43.383484 0 65.62555-.207032-.022156-.654235-.044251-1.30841.083007-2.888549.006348-8.446167-.020019-16.892517.026368-25.33844.080017-14.558411.205444-29.116516.219665-43.72461 0 0-.042663.095642.894837.078919M532.798889 392.546875c-1.056518.099304-2.112976.198608-4.002991.088074-3.146057.072632-6.292114.145263-10.066955-.077698-1.361939.098541-2.723877.197052-4.957337.084686-23.464325.07016-46.92868.140351-71.192016-.091827-3.759522.162567-7.519013.325134-11.534516.937622.04184.167419.08371.334808-.015167 1.431427-.007751 63.221252-.023895 126.442535-.01596 189.663788.001525 12.141662.097534 24.283386.139923 37.219848.40686.204651.813537.587952 1.220611.58844 22.526673.024292 45.053375.027954 67.579834-.046631.629914-.002075 1.256989-.875427 2.024933-2.270874.0513-30.669372.1026-61.338806.029724-92.044494 0 0 .007721.129211.939087.004394 7.009003-.041259 14.018005-.082458 21.422608.020386 0 0 .420837.01239.581481.928955v93.281616h69.849427c.049804-.939575.114685-1.593139.114746-2.246765.007934-74.470703.011474-148.941345.008911-223.412018-.000061-1.157592.052856-2.348114-.218506-3.449401-.066955-.271454-1.312134-.252503-2.844788-.54535-2.823425.077973-5.646911.155976-9.14862-.064788-1.698425.100189-3.396912.200409-5.962708.085327-14.457336.070373-28.914672.140716-43.951721-.084717z"/>
  <path fill="#A70D17" d="M215.443756 400.889771c.3172 72.634796.332718 145.155883.170166 218.121643-.653717-1.228333-1.543716-2.901001-1.545364-4.574524-.069199-70.185791-.063843-140.371674-.011612-210.557526.000778-1.034668.707748-2.068848 1.38681-2.989593z"/>
  <path fill="#AA1822" d="M810.510864 616.890442c-.428161-47.302857-.475525-94.700012-.505981-142.097107-.015137-23.616303.000854-47.232575.058594-71.313629.678039 1.355896 1.841674 3.175842 1.844177 4.997375.093384 67.748017.087463 135.496186.034607 203.244294-.001343 1.691894-.680542 3.383239-1.431397 5.169067z"/>
  <path fill="#A9191E" d="M576.995178 303.663147c-31.898681-6.520874-64.146789-7.5849-96.370209-4.223877-17.402648 1.815125-34.532379 6.244751-51.788055 9.479889-.647064.121338-1.323639.08493-2.396606.045929 6.372161-2.042084 13.039032-4.756775 19.9599-5.82367 16.15924-2.491119 32.405487-4.551757 48.680236-6.129577 27.411072-2.657501 54.563111-.257111 81.684571 5.900513.228759.4552.230163.750793.230163.750793z"/>
  <path fill="#A81821" d="M310.669189 375.021667c-1.406158.676026-3.286682 1.885834-5.174408 1.897187-22.123046.133026-44.247344.04367-66.370803.134918-3.118439.012848-6.234223.675873-9.779251 1.09552 3.533477-1.008179 7.483779-2.945099 11.458282-2.996094 23.126343-.296936 46.258392-.150848 69.86618-.131531z"/>
  <path fill="#AA161E" d="M229.197266 639.405212c23.893905-.016357 47.967743.266663 72.039581.669373 2.856049.047852 5.701172.750122 8.765869 1.503906-23.076416.375305-46.368072.493408-69.657455.314697-3.66153-.028076-7.312714-1.401306-11.147995-2.487976z"/>
  <path fill="#AA1822" d="M717.112183 641.741821c1.2901-.658752 3.064148-1.636047 4.843383-1.645385 21.10199-.110474 42.205017-.023011 63.307007-.132019 3.609864-.018616 7.216248-.715027 11.247132-1.149842-2.740479 1.02655-5.894959 3.007691-9.068482 3.038513-23.278686.226014-46.561279.061341-70.32904-.111267z"/>
  <path fill="#A81821" d="M786.895081 376.499268c-22.663147.428344-45.416504.485412-68.1698.454223-1.188965-.001617-2.376892-.753509-3.785034-1.511749 22.458679-.380554 45.137085-.424377 67.815368-.383301 1.350342.002442 2.699524.68515 4.139466 1.440827z"/>
  <path fill="#A30C11" d="M490.010437 724.182007c15.782471-.386353 31.571838-.601624 47.34436-1.23523 7.274292-.292297 14.515686-1.402527 22.207886-2.042053-4.675049 1.09552-9.76123 2.7771-14.901428 2.96283-17.888794.646423-35.796417.774597-54.171753.897217-.474823-.202576-.479065-.582764-.479065-.582764z"/>
  <path fill="#A7171C" d="M398.161743 702.160278c16.149384 4.805664 32.394226 9.959961 48.821655 15.451722-4.501739-.581666-9.309173-1.10138-13.845764-2.499756-10.763275-3.317627-21.407013-7.025757-32.070831-10.658875-1.036987-.353271-1.877747-1.282532-2.90506-2.293091z"/>
  <path fill="#A81A1F" d="M639.108032 323.084564c-14.666504-4.847076-29.516052-10.040191-44.525757-15.603973 8.863953 2.179169 18.003113 4.389557 26.872071 7.397034 6.019897 2.041381 11.660461 5.201263 17.653686 8.206939z"/>
  <path fill="#A9191E" d="M561.989075 720.184937c14.693664-3.459961 29.387329-6.919861 44.471008-10.450623-.055054.579895-.383606 1.662109-.961975 1.817993-14.068298 3.793335-27.897461 8.692627-43.0672 9.257996-.432495-.213501-.441833-.625366-.441833-.625366zM489.637268 724.001953c.373169.180054.377411.560242.385742.749512-13.840088-1.919373-27.688507-4.028076-41.770019-6.424439 7.870147.840577 15.974121 1.963929 24.076507 3.098572 5.645966.790711 11.289795 1.596985 17.30777 2.576355z"/>
  <path fill="#A7171C" d="M404.77655 316.09256c-6.401977 2.953888-13.219604 5.860809-20.398742 8.791229.354095-.79953.912628-2.040588 1.810699-2.378052 6.01712-2.260803 12.106506-4.329284 18.588043-6.413177zM607.200745 709.875732c3.044738-1.366516 6.50592-2.672241 10.348205-4.028686-3.056518 1.329346-6.49414 2.709412-10.348205 4.028686zM618.242554 705.922791c2.708191-1.358033 5.826965-2.682801 9.31726-4.063538-2.72113 1.328369-5.813842 2.712585-9.31726 4.063538z"/>
  <path fill="#A81A1F" d="M577.36615 303.795807c-.370972-.13266-.372376-.428253-.373474-.574921 2.930786.484284 5.862671 1.115235 8.883301 2.087342-2.653809-.232483-5.396302-.806122-8.509827-1.512421z"/>
  <path fill="#A7171C" d="M641.29834 695.957153c2.049682-1.318481 4.497986-2.627136 7.295776-4.001159-2.06604 1.293396-4.481628 2.65216-7.295776 4.001159zM628.230957 701.924072c1.71698-1.039489 3.832397-2.046203 6.303406-3.125-1.731262 1.004578-3.818176 2.081177-6.303406 3.125zM391.166077 699.167969c2.109741.495605 4.322937 1.344848 6.765564 2.461059-2.067688-.524414-4.364899-1.315857-6.765564-2.461059z"/>
  <path fill="#AA1822" d="M809.002625 626.74585c.080505-2.232056.524597-4.579224 1.028686-7.323853-.181641 2.137878-.423401 4.673401-1.028686 7.323853z"/>
  <path fill="#A81A1F" d="M594.12146 307.134277c-1.952332-.134613-4.126831-.600952-6.690674-1.174926 1.896668.209289 4.182617.526214 6.690674 1.174926z"/>
  <path fill="#A7171C" d="M377.071899 692.268921c1.835999.484985 3.69104 1.340881 5.783143 2.440674-1.763306-.527344-3.763733-1.298523-5.783143-2.440674zM383.065918 695.289673c1.855347.457458 3.738037 1.284363 5.839508 2.375732-1.791534-.492492-3.801819-1.249328-5.839508-2.375732z"/>
  <path fill="#AA1822" d="M810.386902 400.688843c-.551209-2.171143-.822754-4.624665-1.01825-7.553711.483399 2.106811.890686 4.689056 1.01825 7.553711z"/>
  <path fill="#A7171C" d="M660.198425 685.91748c.69281-.755065 1.766846-1.469604 3.147827-2.289428-.71759.706421-1.742126 1.518188-3.147827 2.289428zM684.306519 669.974792c.432067-.647216 1.238464-1.301086 2.337768-2.06842-.459167.611633-1.211304 1.33667-2.337768 2.06842zM655.13916 688.873413c.480652-.650085 1.338806-1.239136 2.509278-1.890808-.502442.608948-1.317139 1.280457-2.509278 1.890808zM665.190796 682.914917c.461731-.653015 1.29956-1.266663 2.447204-1.949219-.483764.616883-1.277404 1.302735-2.447204 1.949219zM680.241211 672.967957c.444031-.661011 1.267883-1.314148 2.392639-2.075013-.470337.622498-1.241638 1.352723-2.392639 2.075013z"/>
  <path fill="#A81821" d="M795.126587 377.135315c-1.250977.184143-2.73645.047272-4.662354-.156006 1.182312-.099274 2.805054-.132111 4.662354.156006z"/>
  <path fill="#A7171C" d="M688.279236 666.972595c.430786-.664978 1.241089-1.329468 2.346802-2.109619-.458802.626343-1.213013 1.368225-2.346802 2.109619zM674.297913 676.973267c.450988-.611512 1.266235-1.231446 2.379089-1.938355-.473206.585266-1.244019 1.257568-2.379089 1.938355zM671.258545 678.932739c.148437-.319641.622497-.674499 1.378784-1.132507-.162903.297058-.608032.697143-1.378784 1.132507zM677.264709 674.937134c.144776-.324158.616456-.68158 1.369263-1.148804-.160034.298645-.601196.707092-1.369263 1.148804zM668.217224 680.926819c.149048-.332764.627686-.680603 1.40033-1.110291-.16095.310486-.615906.70282-1.40033 1.110291zM635.118408 698.867859c.172974-.346436.685669-.660828 1.5094-1.029846-.182496.317505-.676026.689697-1.5094 1.029846zM389.176178 698.162354c.44519-.116333 1.033417.059448 1.805817.485717-.431488.102356-1.04715-.045654-1.805817-.485717zM658.232056 686.932861c.156494-.320739.636657-.66333 1.411926-1.074829-.166077.305054-.627136.679016-1.411926 1.074829zM637.14563 697.89502c.179504-.326172.690002-.635437 1.511108-.983277-.186218.307739-.683227.653931-1.511108.983277zM653.144531 689.888123c.151001-.364136.643921-.70636 1.444092-1.116761-.162537.334168-.632324.73645-1.444092 1.116761zM372.874176 689.952515c.442749-.048218 1.126343.187133 2.032654.700622-.448792.046387-1.1203-.185303-2.032654-.700622zM651.175537 690.907227c.161133-.334595.656006-.668396 1.453491-1.070557-.171508.311462-.64563.691406-1.453491 1.070557zM375.172058 691.152771c.425324-.08429.987427.120178 1.744019.55719-.406098.065491-1.006684-.101502-1.744019-.55719zM649.208496 691.926819c.164246-.322327.65387-.656067 1.444153-1.0448-.172485.3078-.645691.670532-1.444153 1.0448zM639.196045 696.923218c.177368-.305359.675598-.621887 1.47522-.97876-.183838.295715-.669068.631592-1.47522.97876z"/>
  <path fill="#AA161E" d="M226.181885 637.78064c.489136-.04364 1.088241.262695 1.85025.864074-.471497.02533-1.105896-.244445-1.85025-.864074z"/>
  <path fill="#AA1822" d="M807.939148 629.06543c-.115845-.476319.081909-1.172242.557678-2.091736.103943.475036-.070007 1.173523-.557678 2.091736zM799.265259 637.921753c.217651-.342529.797729-.713745 1.732422-1.171265-.220276.323365-.795105.733033-1.732422 1.171265zM797.134155 638.88092c.189026-.310791.706421-.603759 1.53125-.935119-.196106.291992-.699524.622497-1.53125.935119z"/>
  <path fill="#A7171C" d="M409.783386 314.030579c-.171203.354705-.650604.712616-1.450928.999328.166993-.379516.654877-.687835 1.450928-.999328zM406.84729 315.05368c-.149292.369538-.638153.735291-1.449585 1.149201.154968-.352204.632507-.752594 1.449585-1.149201z"/>
  <path fill="#A81821" d="M317.245728 369.162964c.047393.231628-.250824.583313-.850281 1.109985-.032593-.213287.236053-.601623.850281-1.109985z"/>
  <path fill="#A30C11" d="M561.724243 720.146301c.264832.038636.27417.450501.278992.656861-.193054.20227-.39093.19812-.885376.170654-.083862-.30426.128845-.585205.606384-.827515z"/>
  <path fill="#AA161E" d="M313.171173 645.026733c.204285-.054626.509766.168152.941132.648926-.196045.048157-.517975-.161621-.941132-.648926z"/>
  <path fill="#AA1822" d="M713.913208 644.691284c-.119568-.284424.074341-.591064.529053-.997436.101989.258545-.056824.616882-.529053.997436zM714.911499 643.69104c-.125244-.2854.063477-.593689.510437-1.003296.106628.259216-.044983.619812-.510437 1.003296zM715.906494 642.679321c-.11853-.288147.077332-.590393.533081-.989929.100403.260437-.059143.618164-.533081.989929zM712.901123 645.665833c-.116638-.292298.081787-.589173.539429-.980896.098022.262207-.063172.619262-.539429.980896z"/>
  <path fill="#A81821" d="M710.779114 371.004822c-.251343.104889-.573548-.085572-1.005676-.540222.238281-.094544.586547.075134 1.005676.540222zM711.791443 371.990112c-.241394.090241-.556091-.109924-.979309-.574432.229614-.081543.56781.101257.979309.574432zM314.003113 372.168152c.047333.207947-.185089.503326-.683899.904358-.042847-.201905.180633-.50943.683899-.904358z"/>
  <path fill="#A7171C" d="M663.941223 683.699951c-.054321-.256286.189636-.511108.707581-.836426.046203.2323-.18158.535096-.707581.836426z"/>
  <path fill="#A81821" d="M712.814941 373.062866c-.231872.065613-.549926-.165954-.977172-.676513.224243-.05954.557556.159912.977172.676513z"/>
  <path fill="#A7171C" d="M670.029663 679.829407c-.044067-.216797.182434-.494263.679199-.828797.043885.217957-.182434.493042-.679199.828797z"/>
  <path fill="#A81821" d="M312.91452 373.155151c.053955.197571-.15506.4917-.61676.896302-.050507-.192963.151642-.496338.61676-.896302zM709.757263 369.968323c-.249573.103912-.62793-.114716-1.186767-.618866.23236-.091553.645141.102417 1.186767.618866z"/>
  <path fill="#AA161E" d="M321.237701 653.040283c.250367-.106872.634491.108032 1.199707.61084-.234588.095581-.650268-.096802-1.199707-.61084zM320.211426 652.004883c.249573-.105042.575012.08374 1.010925.537597-.238007.095459-.586517-.074218-1.010925-.537597zM319.183838 650.875671c.238006-.058288.557373.193177.982544.735047-.229828.05188-.565491-.186768-.982544-.735047zM317.19046 648.980957c.215668-.062622.536926.169922 1.004669.665283-.202056.051819-.550567-.159179-1.004669-.665283z"/>
  <path fill="#AA1822" d="M711.129517 647.180664c-.125672-.164795.04187-.47345.19989-.546997.080566.188232.003113.450073-.19989.546997z"/>
  <path fill="#AA161E" d="M315.175171 647.030457c.200836-.055542.509094.166381.955261.641662-.190704.047608-.519256-.158264-.955261-.641662z"/>
  <path fill="#AA1822" d="M711.894897 646.659424c-.127807-.295899.060914-.593933.503235-.989014.106812.264221-.039978.625611-.503235.989014z"/>
  <path fill="#556923" d="M524.791504 528.066406s-.420837-.01239-.905274-.370239c-3.867553-.687927-7.267272-1.39563-10.629333-1.247742-3.764526.165772-7.494934 1.106568-11.240204 1.710022 0 0-.007721-.129211-.354767-.05426-.781341 1.552002-1.590393 3.028076-1.594391 4.506287-.075378 27.822021-.070739 55.644348-.015808 83.466491.003174 1.611451.576874 3.22168.423279 4.864685-23.112884.011597-45.763946-.009033-68.254852-.408691.363495-2.508789.743408-4.638672.744507-6.768616.037872-73.249206.039886-146.498382.514434-219.759704 53.160767-.01944 105.854096-.026734 158.716584.349609.378662 2.347473.768127 4.311066.77063 6.275177.03833 29.969025.025634 59.93811.025695 89.907166.000061 41.290741.003052 82.581451-.000915 123.872161-.00061 6.556214-.014221 6.56366-6.7052 6.568665-9.823181.007263-19.646424.002747-29.469605.002991-9.951172.000183-19.902344.000061-29.823608.000061 0-29.737.03363-59.00232-.09375-88.267029-.006714-1.552063-1.373718-3.098145-2.107422-4.647034m-21.891693-46.910858h21.220672c0-8.724914 0-16.958069.540589-25.705414-.178589-2.137848-.357178-4.275726-.693726-7.309356.051697-2.723511.103394-5.447052.484802-8.319031.059266-.104035.193604-.264679.165101-.30249-.135926-.180207-.316102-.326996-.735047-1.274598-7.345703-.075409-14.691437-.150787-22.805939-.021484-.354888.689362-1.015777 1.377167-1.019317 2.068359-.064911 12.611268-.093903 25.223389.031219 37.83371.009613.967163 1.225159 1.922333 2.811646 3.030304zM338.457672 529.046509c-.089661-.162842-.179321-.325684-.46167-.981018-.389343-.788697-.663269-.9646-1.481659-1.037049-2.28482-.022644-4.105804-.102295-5.919494-.020752-5.8573.263245-11.711914.585877-17.567566.88556-.292481.211059-.584992.42218-1.293396 1.171142-.528076 2.354797-.736512 4.171631-.737854 5.988587-.019928 26.649353-.012207 53.298706-.011139 79.948059.000091 1.906921.00003 3.813903.00003 5.580627h-63.628479V394.455872h63.633667c0 2.138702.000122 3.794891 0 5.45111-.002044 25.15033-.026428 50.300721.038758 75.450867.004882 1.880249.650818 3.75885.998779 5.638214 0 0-.033997-.029938.086914.34906.600037.770569 1.074677 1.497071 1.558929 1.503479 7.304261.097046 14.610779.160401 21.913605.039063.819763-.013611 1.620056-1.198425 2.429382-1.840149 0 0-.013885-.050568.39679-.158844.799896-1.439697 1.526154-2.770569 1.528534-4.102722.046295-25.934021.008118-51.868195.003632-78.218079-.326233-4.303497 2.097625-4.609589 5.110687-4.598511 17.165466.063172 34.334015.19928 51.4953-.076751 4.958008-.079712 6.570068 1.209167 6.558167 6.394806-.164582 71.662262-.10846 143.325012-.120362 214.987609-.000305 1.764649-.161041 3.529358-.231598 4.977723-.693634.358459-.836425.496582-.979827.497192-19.657929.086243-39.315918.190308-58.973664.154663-.957947-.001709-1.913635-1.231689-2.8479-2.359436.006378-30.168396-.009766-59.867004-.081879-89.717224-.055969-.15155-.433105-.253357-.433105-.253357s-.171692.40863-.372376.453735c-.200683.045105-.611206.018189-.611206.018189zM713.99054 550.993103c-.253846-.148071-.48346-.327209-1.082581-1.047974-5.529846-.649231-10.668152-.942199-15.801209-.868591-3.036621.043457-6.065002.666138-9.097045 1.028381 0 0 .042663-.095642-.31897.004883-.803894 1.896302-1.622986 3.69043-1.631043 5.488159-.097961 21.789246-.076355 43.579041-.55249 65.390381-21.026794.021729-41.587097.021729-62.202514.021729V394.379944h62.722473c0 2.218811-.000122 4.025055.000061 5.831329.002075 19.813324-.028565 39.626801.059814 59.439728.008301 1.859741.766907 3.716095 1.177124 5.574036 0 0 .38916.26062.722046.719055 5.066223.655578 9.801453 1.03833 14.532105.988434 3.504882-.036927 7.003784-.636261 10.505371-.985016.314575-.480011.62915-.960053 1.308471-2.033234.466797-7.32138.684754-14.050629.625061-20.777405-.032837-3.698181-.53302-7.392242-.822448-11.088165-.056763-.470276-.113465-.940521.193359-2.061096.363464-12.244019.363464-23.837738.363464-35.696411h62.846314v90.699493c-12.10492 0-23.758301-.04483-35.410584.049408-1.70459.013764-3.403686.689942-5.105346 1.059601-.005188 7.308258-.010376 14.616547.101318 22.779083 1.605652 1.260925 3.088135 1.989807 4.584229 2.018677 6.663269.128601 13.330505.05722 19.996276.057678 5.266419.000366 10.532837.000061 15.996643.000061v109.595703h-62.707336c0-2.272949-.000305-4.090698.000061-5.908447.003906-19.497436.033264-38.994934-.032349-58.492187-.005798-1.720093-.632141-3.438172-.970275-5.157166z"/>
  <path fill="#435B13" d="M524.871826 528.524658c.653382 1.090637 2.020386 2.636719 2.0271 4.188782.12738 29.264709.09375 58.530029.09375 88.267029 9.921264 0 19.872436.000122 29.823608-.000061 9.823181-.000244 19.646424.004272 29.469605-.002991 6.690979-.005005 6.70459-.012451 6.7052-6.568665.003967-41.29071.000976-82.58142.000915-123.872161-.000061-29.969056.012635-59.938141-.025695-89.907166-.002503-1.964111-.391968-3.927704-.517579-6.292755.136719-.783264.189515-1.165283.24231-1.547302.703552.114532 1.948731.095581 2.015686.367035.271362 1.101287.218445 2.291809.218506 3.449401.002563 74.470673-.000977 148.941315-.008911 223.412018-.000061.653626-.064942 1.30719-.114746 2.246765h-69.849427c0-31.097778 0-62.189697-.080322-93.739929z"/>
  <path fill="#2F4907" d="M339.933746 619.014893c.956757.65802 1.912445 1.888 2.870392 1.889709 19.657746.035645 39.315735-.06842 58.973664-.154663.143402-.00061.286193-.138733.979827-.497192.070557-1.448365.231293-3.213074.231598-4.977723.011902-71.662597-.04422-143.325347.120362-214.987609.011901-5.185639-1.600159-6.474518-6.558167-6.394806-17.161285.276031-34.329834.139923-51.4953.076751-3.013062-.011078-5.43692.295014-5.350098 4.600098-.576355.40387-.897095.399567-1.217987.404358-.095428-1.974121-.190857-3.948242-.299316-6.191345h66.289795V622.40741c-2.78357 0-5.389649.000488-7.995728-.000061-18.147156-.003968-36.294342.008606-54.441406-.039551-1.705933-.004517-4.44693 1.128601-3.443237-2.94751.343658-.394775.839538-.407837.839538-.407837l.496063.002442z"/>
  <path fill="#274001" d="M312.014038 480.527771c-.33435-1.411072-.980286-3.289673-.985168-5.169922-.065186-25.150146-.040802-50.300537-.038758-75.450867.000122-1.656219 0-3.312408 0-5.45111h-63.633667v226.125793h63.628479c0-1.766724.000061-3.673706-.00003-5.580627-.001068-26.649353-.008789-53.298706.011139-79.948059.001342-1.816956.209778-3.63379.620666-5.741333.298798 30.683593.298798 61.657714.298798 92.893249h-65.609253V392.69339h65.694183c0 29.117157 0 58.241638.013611 87.834381z"/>
  <path fill="#43580E" d="M433.011688 394.016785c-.007141 73.249176-.009155 146.498352-.047027 219.747558-.001099 2.129944-.381012 4.259827-.968048 6.80011-.383759.410339-.832703.443543-.832673.443543-.052459-12.141663-.148468-24.283387-.149993-36.425049-.007935-63.221253.008209-126.442536.393127-190.12555.786316-.454711 1.195465-.447662 1.604614-.440612z"/>
  <path fill="#233D02" d="M687.265503 464.735657c-.41156-1.368561-1.170166-3.224915-1.178467-5.084656-.088379-19.812927-.057739-39.626404-.059814-59.439728-.000183-1.806274-.000061-3.612518-.000061-5.831329h-62.722473v226.630127c20.615417 0 41.17572 0 62.449584-.010559.713624-.010498 1.207032.015197 1.239075.3031.048096.480347.064087.672852.080139.865296h-64.975708V392.795471h65.169068c0 23.935608 0 47.693207-.001343 71.940186z"/>
  <path fill="#2B4502" d="M713.968018 551.461853c.360656 1.250244.986999 2.968323.992797 4.688416.065613 19.497253.036255 38.994751.032349 58.492187-.000366 1.817749-.000061 3.635498-.000061 5.908447h62.707336V510.9552c-5.463806 0-10.730224.000305-15.996643-.000061-6.665771-.000458-13.333007.070923-19.996276-.057678-1.496094-.02887-2.978577-.757752-4.58252-1.552795 13.537354-.344483 27.189941-.300538 41.359253.041626.726929.786712.937012 1.275238 1.147095 1.763763-.020203 31.926727-.040406 63.853485-.27356 96.603729-.012451 5.019165.18811 9.214844.38855 13.410523-.796387.393066-1.591797 1.126892-2.389343 1.129272-20.983033.062744-41.966248.049805-63.411438.049805 0-23.59906 0-47.005921.022461-70.881531z"/>
  <path fill="#284202" d="M737.486633 486.049072c1.237-.31903 2.936096-.995208 4.640686-1.008972 11.652283-.094238 23.305664-.049408 35.410584-.049408v-90.699493h-62.846314c0 11.858673 0 23.452392-.278015 35.348938-.278076-12.012543-.278076-24.327912-.278076-36.912476h64.636963v93.270752c-13.581909 0-27.201538 0-41.285828.050659z"/>
  <path fill="#41580C" d="M500.936798 620.909485c-.308197-1.61084-.881897-3.221069-.885071-4.83252-.054931-27.822143-.05957-55.64447.015808-83.466491.003998-1.478211.81305-2.954285 1.656464-4.48816.357849 30.61261.306549 61.282044-.040894 92.398865-.296142.447449-.746307.388306-.746307.388306z"/>
  <path fill="#395205" d="M339.956238 618.545166c-.022492.469727-.518555.467285-.518555.467285s-.49588.013062-.744507.013672c-.332214-18.90448-.440735-37.80957-.489868-56.714783-.028015-10.783386.040833-21.567016.160217-32.807678.094147-.457153.50467-.430237.869568-.474914.364929-.044678.697235-.049256.697235-.049256.016144 29.69867.032288 59.397278.02591 89.565674zM338.381531 399.433411c.427398-.464386.748138-.460083 1.308166-.448243.260224 25.932587.298401 51.866761.252106 77.800782-.00238 1.332153-.728638 2.663025-1.504364 4.112915-.311829-26.922974-.237152-53.964386-.055908-81.465454z"/>
  <path fill="#284202" d="M433.479095 394.004639c-.876556.005096-1.285705-.001953-2.001678-.011872-.348633-.170227-.390503-.337616.139465-.69516 4.301789-.275085 8.031769-.360107 11.761719-.445129 23.464325-.07019 46.92868-.140381 71.295899-.007751 2.163024.137908 3.423095.073028 4.683227.008117 3.146057-.072632 6.292114-.145263 10.319763-.015564 1.821411.136719 2.761292.071076 3.701111.005371 14.457337-.070343 28.914673-.140686 44.282471-.005798 2.517151.139526 4.12384.073853 5.73053.008179 2.823425-.078003 5.646911-.156006 8.884887-.144837.361756.471192.30896.853211.003113 1.252808-52.946411.024902-105.63974.032196-158.800507.051636z"/>
  <path fill="#2B4502" d="M500.475006 620.94165c.461792-.032165.911957.026978 1.138336.043702-.402038.483825-1.029113 1.357177-1.659027 1.359252-22.526459.074585-45.053161.070923-67.579834.046631-.407074-.000488-.813751-.383789-1.215606-.985839.005035-.3974.453979-.430604.677551-.462037 22.874634-.010742 45.525696.009888 68.63858-.001709z"/>
  <path fill="#395205" d="M686.961304 621.014709s-.493408-.025695-.740479-.036926c-.237488-21.800781-.259094-43.590576-.161133-65.379822.008057-1.797729.827149-3.591857 1.677124-5.463195.301331 14.482605.175904 29.04071.095887 43.599121-.046387 8.445923-.02002 16.892273-.292847 25.906616-.463501.800903-.567505 1.06958-.578552 1.374206zM337.548462 481.090759c-.341309.598481-1.141602 1.783295-1.961365 1.796906-7.302826.121338-14.609344.057983-21.913605-.039063-.484252-.006408-.958892-.73291-1.542205-1.518829 8.246887-.328125 16.597992-.261932 25.417175-.239014z"/>
  <path fill="#284202" d="M714.08667 432.512024c.337524 3.232605.837707 6.926666.870544 10.624847.059693 6.726776-.158264 13.456025-.532165 20.490937-.310059-10.013001-.348267-20.332703-.338379-31.115784z"/>
  <path fill="#233D02" d="M688.478455 550.096558c2.563293-.353882 5.591674-.976563 8.628295-1.02002 5.133057-.073608 10.271363.21936 15.675721.689087-7.766297.328186-15.800782.325378-24.304016.330933z"/>
  <path fill="#284202" d="M712.560425 465.860199c-3.03833.436066-6.537232 1.0354-10.042114 1.072327-4.730652.049896-9.465882-.332856-14.496949-.873322 7.826783-.324371 15.951294-.305328 24.539063-.199005z"/>
  <path fill="#233D02" d="M313.493103 527.935059c5.389832-.341492 11.244446-.664124 17.101746-.927369 1.81369-.081543 3.634674-.001892 5.92398.216431.47168.212586.472809.60492.472809.60492-7.677582.049255-15.355163.09851-23.498535.106018z"/>
  <path fill="#435B13" d="M502.482361 528.096069c3.279602-.541076 7.01001-1.481872 10.774536-1.647644 3.362061-.147888 6.76178.559815 10.431519 1.175721-6.722352.327026-13.731354.368225-21.206055.471923z"/>
  <path fill="#909D6B" d="M779.843384 620.761963c-.297486-3.793335-.498047-7.989014-.494385-12.550049.333313 3.805725.462402 7.976685.494385 12.550049z"/>
  <path fill="#435B13" d="M442.979095 392.701294c-3.330444.236206-7.060424.321228-11.234222.371368 3.315704-.197418 7.075195-.359985 11.234222-.371368zM583.05249 392.695618c-1.267578.215088-2.874267.280761-4.957763.248871 1.221679-.197815 2.920166-.298035 4.957763-.248871zM519.043335 392.705048c-.94574.212707-2.205811.277587-3.933106.245147.894837-.195892 2.256775-.294403 3.933106-.245147zM533.088745 392.694763c-.649963.213593-1.589844.279236-2.994507.247437.591675-.196717 1.648133-.296021 2.994507-.247437z"/>
  <path fill="#909D6B" d="M779.78717 510.843658c-.365905-.182128-.575988-.670654-.842224-1.426178.295166.195282.646607.657532.842224 1.426178z"/>
  <path fill="#556923" d="M686.993347 621.302612c-.020996-.592529.083008-.861206.471802-1.199157.213928.549011.236023 1.203186-.066711 1.960937-.341004-.088928-.356995-.281433-.405091-.76178z"/>
  <path fill="#2F4907" d="M337.237305 527.904175c-.245667-.075134-.246796-.467468-.251282-.663208.34671-.140076.620636.035827.912476.563232-.075043.212586-.24527.193909-.661194.099976z"/>
  <path fill="#FBFAF1" d="M524.120483 455.964325v25.191223c-7.43219 0-14.326446 0-21.699676-.542633-.511261-14.559936-.543518-28.577179-.575775-42.594421 7.345733.075378 14.691467.150756 22.111633.854065.074402.627868.16571 1.097656.16571 1.097656-.051635 2.723511-.103332 5.447052-.129211 9.049011.059631 2.900696.093445 4.922882.127319 6.945099z"/>
  <path fill="#435B13" d="M501.460632 438.120819c.416657 13.914917.448914 27.93216.494446 42.418488-.641754-.49173-1.8573-1.4469-1.866913-2.414063-.125122-12.610321-.09613-25.222442-.031219-37.83371.00354-.691192.664429-1.378997 1.403686-2.170715z"/>
  <path fill="#395205" d="M524.390747 455.707214c-.304138-1.765106-.337952-3.787292-.318603-6.240081.23175 1.707275.410339 3.845153.318603 6.240081zM524.287231 439.895996c-.164856.074219-.256164-.395569-.203369-.628998.217285-.074737.397461.072052.533387.252259.028503.037811-.105835.198455-.330018.376739z"/>
  <path fill="#2F4907" d="M339.874359 528.827942c.055969.15155-.276337.156128-.440582.155701-.164215-.000428.007477-.409058.007477-.409058s.377136.101807.433105.253357z"/>
</svg>
