<svg xmlns="http://www.w3.org/2000/svg" xml:space="preserve" viewBox="0 0 160 160">
  <path fill="#aa793d" d="M122 161c-20.020897 0-40.041786 0-60.655949-.368271-2.454754-.790542-4.297565-1.344391-6.181038-1.611786-7.32608-1.040146-14.665069-1.989349-21.740146-3.1613 2.703815-2.750916 5.148517-5.312897 8.052002-7.878663 3.932243.19487 7.411239.32486 10.878185.60434 13.20557 1.064636 26.407238 2.177521 40.054722 3.32431 9.890915.919678 19.337486 1.7874 29.121796 2.748047 1.585685 1.00972 2.833641 1.926483 4.154769 2.897019C124.204582 158.937851 123.102295 159.968933 122 161"/>
  <path fill="#b59d8c" d="M134 1h27c0 6.017931 0 12.03959-.343628 18.592554-2.114929 1.48938-3.886246 2.447455-5.954712 3.229727-5.574615-2.50355-10.75235-5.103634-16.157379-7.083027-5.487198-2.009472-6.219192-3.257238-4.1371-8.751021.424026-1.118816-.21785-2.641594-.372238-4.313219C134.020706 1.893297 134.010361 1.446648 134 1"/>
  <path fill="#6c748d" d="M117 1c4.356903 0 8.713806 0 13.367615.285771-1.909226 2.798863-4.115349 5.311956-6.554444 8.014717-1.08451 1.032572-1.936042 1.875477-3.182418 2.73635-4.791855 1.492463-9.283951 2.733951-13.56913 4.482531-16.88842 6.891384-33.98536 11.821118-52.56186 6.691569-.168613-.022086-.495136-.117236-.609756-.384657-.374928-.785122-.635227-1.302824-.469833-1.813982 5.348903.111948 10.536739 1.272321 15.143638.116724 11.847992-2.971962 23.66877-6.383169 35.023361-10.835468C108.412849 8.40134 114.56115 6.96473 117 1"/>
  <path fill="#65708c" d="M116.550018 1c-1.988868 5.96473-8.137169 7.40134-12.962845 9.293555-11.354591 4.452299-23.175369 7.863506-35.023361 10.835468-4.606899 1.155597-9.794735-.004776-15.549247-.125365-4.822239-.822696-8.837716-1.76617-12.364678 1.846024-3.124374-.720596-5.886749-1.285635-8.393249-2.101788 3.752262-1.417309 7.248653-2.583503 11.182453-3.749672 17.650966-1.531671 34.92493-2.902808 51.317417-8.886532C99.415535 6.411013 103.59864 3.406556 108 1z"/>
  <path fill="#566787" d="M1 11V1c17.68751 0 35.375095 0 53.417831.341868-5.3409 2.121385-11.048626 3.864652-16.728988 5.692913-3.91565 1.260277-7.793425 2.638226-12.156821 3.963878C17.042219 10.999301 9.02111 10.999651 1 11"/>
  <path fill="#b69e8c" d="M1 65c0-6.354397 0-12.708797.422451-19.524456 10.757967-1.047077 21.15205-1.152866 31.406387-2.404018 5.876149-.716958 11.525273-3.29459 17.14552-4.716687-3.380909 2.817536-6.630734 5.317219-10.161751 7.575711-1.849297-.176381-3.525448-.443985-4.962788.023174-2.899074.942245-5.75939 2.10767-8.467514 3.506603-3.231283 1.669178-6.286301 3.679569-9.741588 5.534783-.756612-.020001-1.189311-.032631-1.719194-.330742-1.039349-.087963-1.981514.109554-3.177476.313835-.422966.012321-.592134.017883-1.115518.055931-3.477004 2.685635-3.177856 3.713779 1.652017 6.012745.761246.356514 1.240089.657406 1.718188 1.358585-.002947 1.468083-.005152 2.535874-.195586 3.74392-.430923.34275-.635042.57862-1.211822.840087C8.453392 66.321121 4.726696 65.660561 1 65"/>
  <path fill="#616c88" d="M107.531364 1c-3.932724 2.406556-8.115829 5.411013-12.774856 7.11169-16.392487 5.983724-33.666451 7.354861-51.223427 8.56857.926891-1.772168 2.197208-3.226348 3.874649-4.707033 9.74815-2.068949 19.147881-3.885214 28.395973-6.285709C78.743317 4.92449 81.279312 2.606464 84 1.000001 91.687576 1 99.375153 1 107.531364 1"/>
  <path fill="#5c6c8d" d="M47.00061 11.999732c-1.270321 1.45418-2.540638 2.90836-3.904945 4.680501-3.590374 1.484158-7.086765 2.650352-11.306967 4.067692C21.043257 20.999378 11.021628 20.999689 1 21v-9.54589c8.02111-.454459 16.042219-.454809 24.864841-.227527 7.579598.409471 14.357686.591311 21.135769.773149"/>
  <path fill="#647393" d="M1 21.454109c10.021628-.45442 20.043257-.454731 30.532824-.45507 3.230314.565008 5.992689 1.130047 9.013166 2.180092-1.124866 1.542522-2.469879 2.65504-3.901169 3.642509-1.515476 1.045546-3.11301 1.972155-5.026155 3.034666-1.307724.185057-2.263995.286156-3.698805.324112-4.293797.569042-8.109053 1.201225-12.324263 1.849688-1.466916-.003117-2.533879-.022519-3.842243-.243355-1.746194.273308-3.250984.748058-5.13629 1.240822-1.137746.082817-1.894978.147621-2.888786.082142-.392535-.220261-.548492-.310242-.805993-.660435C2.213828 31.792711 1.606914 31.396355 1 31z"/>
  <path fill="#7e4c39" d="M161 113c0 .75 0 1.5-.468658 2.623764-9.824723.376183-19.180802.378601-28.972657.379387-3.2388.533203-7.637169-1.829353-7.952675 3.874168-1.91761-.356353-3.448936-.662246-4.82827-1.279419 2.537499-3.040847 5.220978-5.571128 7.219574-8.559471 1.780503-2.662239 3.767533-4.340843 7.261567-4.505256 1.144149-.843857 2.015609-1.587387 3.191253-2.15947 3.647446.276878 6.990753.382317 10.767746.538231 1.878388.076141 3.323075.101807 4.918473.30983.367157.415535.61293.612014.87857 1.198639-.009476 2.517257-.009476 4.607673-.009476 6.780998 3.123932.312057 5.559235.555328 7.994553.798599"/>
  <path fill="#5b6986" d="M47.40773 11.973228c-7.185203-.155334-13.963291-.337174-21.074194-.746937 3.561882-1.553284 7.439657-2.931233 11.355307-4.19151C43.369205 5.20652 49.076931 3.463253 54.88649 1.341868 64.354225 1 73.708458 1 83.531342 1.000001c-2.25203 1.606463-4.788025 3.924489-7.727639 4.687517-9.248092 2.400495-18.647823 4.21676-28.395973 6.28571"/>
  <path fill="#42442b" d="M1 148c0-3.030594 0-6.061188.355232-9.611572 2.920447-.755539 5.485661-.991303 8.050875-1.227066.300643.546508.601285 1.093033.901927 1.639541 1.911979-2.646927 3.823956-5.293869 6.089549-7.915191 1.061419.084716 1.769222.143798 2.51022.606353.088567 1.756806.14394 3.110169.025734 4.653092.229116.744873.631807 1.300171 1.1021 2.05867.067602.203201.183344.615539.134701.978866-.067383.84668-.086119 1.330033-.423363 1.868699-1.383596.8264-2.448683 1.597503-3.893724 2.643676 4.143249 1.959427 5.375932.674958 5.359502-2.739502.435639-.012619.609619-.018753.921873.181.346661.467957.59463.684738 1.171252.951965.74361.71904 1.198141 1.342408 1.666561 2.212647.013887.246887.063371.738968.079693 1.07077.010818.774658.005315 1.217484-.417574 1.649582-2.189461.099518-3.961533.209778-5.733607.320038.012875.42598.025748.851959.038622 1.277939 1.343968.150329 2.687935.300644 4.044722.688843.012819.237884.037905.713668.021694 1.127868-.027273 1.795716-.038336 3.177231-.445055 4.559311-1.450666.006958-2.505676.013352-3.943155.008133-2.507252-1.511612-4.444954-3.511459-6.801101-4.39328C8.36847 149.319824 4.620319 148.830688 1 148"/>
  <path fill="#ceb39c" d="M3.023829 32.709492c.155958.089981.311915.179962.804882.661274 1.272255.490287 2.207503.589241 3.480194.665313.78766-.005115 1.237877.012654 2.035045.253251 13.40499 1.684791 25.796202-.079232 37.191904-7.111075 1.286423-.793804 3.433445-1.469129 4.608673-.936266 4.118264 1.867289 7.985863 4.287413 11.665165 6.629547-2.132579.747406-3.981678 1.36287-5.9169 1.635391-3.524544-4.069513-6.990975-4.524724-10.931626-2.002468-2.348526 1.503205-4.725864 3.308834-7.346119 3.980824C26.288605 39.646542 13.78802 41.519455 1 40c0-2.042316 0-4.084637.342049-6.576752.788626-.537784 1.235203-.62577 1.68178-.713756"/>
  <path fill="#51502e" d="M122.468399 161c.633896-1.031067 1.736183-2.062149 3.215942-3.446304-1.321128-.970536-2.569084-1.887299-4.278236-3.165802-1.45253-1.691452-2.443855-3.02118-3.301308-4.686356 4.053467-2.123337 7.973061-3.911209 11.996994-5.369476 2.369141 1.440307 4.633927 2.550995 7.167496 3.889587 3.086197 1.075867 5.903641 1.923844 8.854569 3.059647.381134 1.088959.628784 1.890106.779953 3.020309C145.20488 156.753754 143.602432 158.876877 142 161z"/>
  <path fill="#45442e" d="M161 83c0 1.066788 0 2.133575-.391846 3.604263-2.656646 1.492943-4.921417 2.581986-7.186203 3.671028.129486.339699.258957.679398.388443 1.019097 1.398941.239982 2.797898.479973 4.115601 1.064438-2.126251 1.765754-4.290665 3.047706-6.171753 4.660186-1.140305.977456-1.842117 2.466423-2.940643 3.769608-.199723.044014-.604309.103432-.874359-.15313-3.793107-.05809-7.316178.140381-10.88765-.011016.272812-1.444886.59404-2.53991 1.291153-3.648949 4.59935-1.615173 4.595657-2.564034.280304-6.463692.093399-1.77893.25888-3.148628.752197-4.417114 6.484863 3.299354 10.246308.904228 11.867233-6.965241.758713.3694 1.262543.619736 2.066849 1.04963C156.073212 81.239105 158.536606 82.119553 161 83"/>
  <path fill="#494d2a" d="M1 148.476654c3.620319.354034 7.36847.84317 10.816678 2.133728 2.356147.881821 4.293849 2.881668 6.871898 4.765015C19.427893 157.505844 19.713945 159.252914 20 161H1z"/>
  <path fill="#ab9b99" d="M161 38c0 .75 0 1.5-.386353 2.699715-5.58815 1.217075-10.707031 2.144958-13.844528 7.011287-.720352-3.425731-1.239929-6.565239-2.075515-9.895191-2.140778-.64405-3.94249-1.290943-5.795044-1.512306-4.27385-.510685-8.572373-.814846-12.558831-1.446289 2.420525-.444656 4.538979-.645813 6.966286-.628639 4.676224.322086 9.099243.857834 13.382187.306099 1.598816-.20596 2.870666-2.949906 4.504471-4.783421.413559-1.082439.614242-1.918062 1.15065-2.752079.783661.005837 1.231598.010063 1.676697.465675C153.968231 37.899105 153.968231 37.899105 161 38"/>
  <path fill="#766557" d="M161 120c0 1.389 0 2.777992-.384781 4.585205-2.134827 1.079269-3.884857 1.740334-5.967911 2.409844-.77771.004966-1.222381.00148-1.876709-.165535-2.062835-.047295-3.916046.068946-6.036148.001983-2.086425-.066963-3.905929.049271-5.868377-.026794-.351578-.437104-.589844-.648506-.944596-1.111283-1.028625-.434707-1.970428-.58464-3.167633-.729187-.425522.01323-.595657.021058-1.075256-.025421-1.09996-.683021-1.890427-1.311744-2.4151-2.017303 1.21643-2.302544 1.21643-2.302544-3.255341-1.926087-.005523.002655-.000473-.010292-.00264-.326271-.008468-.737243-.014785-1.158516.315369-1.607322.785751-.053513 1.235046-.079483 2.132401-.092087 9.814285.352325 19.180496.691292 28.546722 1.030258"/>
  <path fill="#c6ab94" d="M1 40.333332c12.78802 1.186123 25.288605-.68679 37.615047-3.848049 2.620255-.67199 4.997593-2.477619 7.346119-3.980824 3.940651-2.522256 7.407082-2.067045 10.639344 2.147259-1.342701 1.057205-2.479256 1.626686-3.653885 1.838772-1.631764-.849579-3.851444-2.270542-4.719204-1.685673-6.41507 4.323727-13.463207 6.26117-21.059883 6.658993-4.725005.24744-9.637001-.192703-14.118693.989201C8.755099 43.58535 4.969371 43.480244 1 42z"/>
  <path fill="#585b30" d="M142.469376 161c1.133056-2.123123 2.735504-4.246246 4.820144-6.718872 4.218186-1.650513 7.954193-2.951523 11.872681-4.149704.734268.02475 1.286041-.05333 1.837799-.131424v11z"/>
  <path fill="#919cb5" d="M1 65.444168c3.726696.216393 7.453392.876953 11.814597 1.73526 1.493599-.213478 2.35269-.624687 3.544232-1.054352.776078-.034187 1.219708-.049926 1.829712.106293.755066.376122 1.343756.580277 2.06147 1.180557.059947 1.768288-.009134 3.140442-.425712 4.582917-2.799708.388557-5.339234.413589-7.678713 1.110336-2.187347.651428-4.162491 2.015373-6.596625 3.043884C3.788911 75.084816 2.394455 74.042404 1 73z"/>
  <path fill="#bea48f" d="M1 42.375c3.969371 1.105244 7.755099 1.21035 12.048845.078011 4.481692-1.181904 9.393688-.741761 14.118693-.989201 7.596676-.397823 14.644813-2.335266 21.059883-6.658993.86776-.584869 3.08744.836094 4.429298 1.823212-1.018314.79961-1.784794 1.104286-2.551277 1.408958-5.751331 1.739949-11.400455 4.317581-17.276604 5.034539-10.254337 1.251152-20.64842 1.356941-31.406387 1.935615C1 44.25 1 43.5 1 42.375"/>
  <path fill="#403d2d" d="M161 62c0 4.025185 0 8.050362-.348663 12.598038-2.40123.247665-4.50148.158561-6.493332-.352783-2.105957-.540619-4.108673-1.483346-6.397354-2.255326-.240876-.004898-.722641-.010063-.733033-.339645-.02275-.769226-.035125-1.20887.193177-1.822907 1.4626-.174392 2.684539-.174392 3.201095-.174392-.65921-2.489899-1.231094-4.649918-1.746765-6.597683 2.665924-.367985 4.915283-.678475 7.449814-.800824 1.815124.0406 3.345093-.106941 4.875061-.254478"/>
  <path fill="#b7a194" d="M161 37.532059c-7.031769.367046-7.031769.367046-6.683716-10.164061.426911-1.82213.554733-3.096023.682541-4.369917 1.771301-.958072 3.542618-1.916147 5.657547-2.936151C161 25.68804 161 31.376081 161 37.532059"/>
  <path fill="#874f38" d="M161 119.600006c-9.366226.061028-18.732437-.277939-28.548004-.998466-.452072-1.119965-.454804-1.858361-.45752-2.596756 9.356064-.002419 18.712143-.004837 28.536866-.00602C161 117.066673 161 118.133339 161 119.600006"/>
  <path fill="#88914a" d="M1 73.460632c1.394455.581772 2.788911 1.624184 4.776315 2.930313 3.100931 2.089035 5.608913 3.914338 8.163014 6.035157.283238 1.034065.520358 1.772628.562246 2.773101-2.285702 1.397072-4.376172 2.532227-6.501377 3.327714-.232926-1.295327-.318812-2.293252-.658429-3.195687-.402308-1.069023-1.023354-2.05574-1.549595-3.078125-.9553.898155-1.910597 1.796311-3.187161 2.693962C1.855831 84.964371 1.427916 84.982185 1 85z"/>
  <path fill="#6f5532" d="M33.163754 156.047562c7.33419.983032 14.673179 1.932235 21.999259 2.972381 1.883473.267395 3.726284.821244 5.71238 1.611786C50.645771 161 40.291542 161 29.640499 160.722977c.581537-1.742157 1.45989-3.207306 2.634564-4.678177.493778-.002915.691234-.000076.888691.002762"/>
  <path fill="#a0969c" d="M146.969894 47.997223c2.936722-5.15255 8.055603-6.080433 13.643753-6.922508.386353 1.966953.386353 4.008617.013215 6.44004-3.122559 1.165619-5.871979 1.941487-8.960587 2.699463-1.735977.721405-3.132736 1.460705-4.563492 1.792145-.068313-.951038-.102646-1.494221-.136413-2.365978.001541-.76677.002533-1.204968.003524-1.643162"/>
  <path fill="#494c2d" d="M16.04397 130.860092c-1.91198 2.646942-3.823957 5.293884-5.735936 7.940811-.300642-.546508-.601284-1.093033-.901927-1.639541-2.565214.235763-5.130428.471527-8.050875.772964C1 135.958328 1 133.916672 1.251702 131.682373c4.430466 3.806442 5.979435 3.291687 8.052045-2.585693 2.457625.650467 4.598925 1.206939 6.740223 1.763412"/>
  <path fill="#817e39" d="M1 103c0-3.030594 0-6.061188.336886-9.536682.786026-.457024 1.235165-.469147 1.786294-.374581.101991.106682.507679.131814.507679.131814s.278284-.322121.285466-.567337c.007182-.245209.028622-.735375.330783-.589554 1.145085.391723 1.988007.637619 3.104804 1.027038 1.083647 1.058792 1.893418 1.97406 2.475475 3.126633-.410293 1.079216-.592872 1.921127-.865223 3.061706-1.711986 1.438172-3.3342 2.577675-5.162726 3.892716C2.728751 103.231522 1.864376 103.115761 1 103"/>
  <path fill="#534830" d="M161 112.53936c-2.435318.217369-4.870621-.025902-7.994553-.337959 0-2.173325 0-4.263741.401108-6.781266 3.067505-.419357 6.202469.081589 4.968567-4.41159 1.124939-.003616 1.874909-.006081 2.624878-.008545z"/>
  <path fill="#423f2b" d="M161 100.545891c-.749969.456573-1.499939.459038-2.98027.379371-2.467087.032715-4.203797.147568-6.171784.389084-1.09906-.105468-1.966842-.337608-2.83464-.56974.898819-1.259171 1.600631-2.748138 2.740936-3.725594 1.881088-1.61248 4.045502-2.894432 6.459442-4.796028C159.388428 91.495102 160.194214 91.247551 161 91z"/>
  <path fill="#4a4c2a" d="M31.978745 156.050537c-.878356 1.465134-1.756709 2.930283-2.806904 4.67244C26.299986 161 23.599974 161 20.449978 161c-.736033-1.747086-1.022085-3.494156-1.378933-5.612976.984213-.378143 2.039223-.384537 3.833553-.182236 3.517596.421051 6.295872.633408 9.074147.845749"/>
  <path fill="#4a4830" d="M148.001526 71.994827c2.047806.767082 4.050522 1.709809 6.156479 2.250428 1.991852.511344 4.092102.600448 6.493332.815002.348663 1.006416.348663 2.073082-.03656 3.533585-1.932816.013435-3.4944-.690072-5.022629-.623795-.888764.038544-1.723984 1.311821-2.583298 2.02951-.50383-.250343-1.00766-.500679-2.054352-1.004226-1.347793-.502541-2.152725-.751869-3.099426-1.321503-.045685-2.106537.050385-3.892769.146454-5.679001m1.765335 2.772057c.385529.26767.771072.535339 1.156601.803009.108246-.25737.216476-.514732.324722-.772102-.389252-.118783-.778518-.237557-1.481323-.030907"/>
  <path fill="#88753a" d="M1 103.449974c.864376-.334213 1.728751-.218452 3.061069-.053551 3.608681 1.920815 6.74942 3.792481 9.445813 5.650605-3.467054.957763-7.888345-2.531784-9.78058 2.758209-1.074036.01313-1.900169.10395-2.726302.194763z"/>
  <path fill="#86623c" d="M154.980316 126.986603c1.750046-.661064 3.500076-1.322129 5.634903-1.984894.384781 3.691193.384781 7.384109.13382 11.545441-.417618.484024-.584275.499618-1.011521.509002-.434143-.014511-.607696-.022827-.91632-.368072-1.370316-3.458435-2.605607-6.579956-3.840882-9.701477"/>
  <path fill="#716e4d" d="M152.005478 50.232109c2.749405-.775867 5.498825-1.551735 8.621384-2.279854.373138 1.762104.373138 3.47646.06488 5.799149-2.111511 1.160007-3.914749 1.711689-5.757126 2.021503-.039123-.241863-.093841-.728622.173538-.750591.673355-.152302 1.079331-.282639 2.494202-.736885-1.872742-.167957-2.725662-.24445-3.659287-.621739-.699676-1.34439-1.318634-2.387989-1.937591-3.431583"/>
  <path fill="#584c2c" d="M1 112.428467c.826133-.51928 1.652266-.6101 3.071345-.556183 1.700326.476936 2.807705.809135 3.931783 1.504372-.26286 1.751281-.542419 3.139534-1.26362 4.546135C4.53191 117.960762 2.765955 117.980385 1 118z"/>
  <path fill="#535531" d="M158.956253 137.024994c.173569.008331.347122.016647.92482.210235.618988.407288.857254.600449 1.118927.764771 0 2.37056 0 4.741104-.239716 7.562134-.2397.45047-.718917.469497-1.016418.244446-1.773193-.415848-3.248901-.606644-4.544296-1.109162 1.580429-2.847854 3.948883-5.594574-1.112915-6.997375 1.687851-.420349 3.278732-.547699 4.869598-.675049"/>
  <path fill="#3a3a27" d="M8.987423 129.002686c-1.756286 5.971374-3.305255 6.486129-7.735721 2.242187C1 130.555557 1 130.111099 1.197504 129.189819c.456686-.687164.6486-.947174 1.013763-1.257202.240515-.000358.721352-.014076.990327.016678.449455.032135.629935.033508 1.146569.059509.782025-.012634 1.227896-.049904 1.990125-.046371 1.09395.373947 1.871542.707107 2.649135 1.040253"/>
  <path fill="#6a683e" d="M154.97374 56.014771c1.803253-.551678 3.606491-1.10336 5.718002-1.834908.308258.886806.308258 1.953476.06546 3.503784C160.67627 58.778194 160.838135 59.389099 161 60v1.666664c-1.529968.480873-3.059937.628414-4.839233.204205-.218384-1.337094-.187439-2.102444-.075974-2.90276.080521-.034969.093201-.24593.093201-.24593s-.180802.273938-.483063.255398c-3.636475-.545414-1.498764-1.850876-.721191-2.962806"/>
  <path fill="#423e2c" d="M153.309326 80.179108c.558838-.89724 1.394058-2.170517 2.282822-2.209061 1.528229-.066277 3.089813.63723 5.022629 1.023788C161 80.066673 161 81.133339 161 82.600006c-2.463394-.480453-4.926788-1.360901-7.690674-2.420898"/>
  <path fill="#4b4f2c" d="M161 90.600006c-.805786.647545-1.611572.895096-2.705063 1.278488-1.686645-.104133-3.085602-.344124-4.484543-.584106-.129486-.339699-.258957-.679398-.388443-1.019097 2.264786-1.089042 4.529557-2.178085 7.186203-3.271217C161 88.066673 161 89.133339 161 90.600006"/>
  <path fill="#888595" d="M124.046158 9.110823c2.206108-2.513096 4.412231-5.026189 6.786087-7.825052C131.75 1 132.5 1 133.625 1c.385361.446648.395706.893297.155884 1.677575-.419174.342293-.588196.346957-1.048508.511254-3.089584 2.080422-5.887901 4.00121-8.686218 5.921994"/>
  <path fill="#464529" d="M1 118.333328c1.765955-.352943 3.53191-.372566 5.731819-.163177.433953.229004.403883.720581.378894 1.017135-.024649.49495-.024308.693352-.032518 1.239685-.365373 1.392632-.722194 2.437355-1.080937 3.17907-.194615-1.093369-.387308-1.883728-.670533-3.045433-1.041198 1.108955-1.683202 1.792732-2.455335 2.198532C2.160841 121.654106 1.580421 120.827057 1 120z"/>
  <path fill="#827f37" d="M1 85.428719c.427916-.446534.855831-.464348 1.846477-.170357.752811 2.162849.942891 4.013893.761821 5.825424C2.491431 91.029518 1.745716 91.014755 1 91z"/>
  <path fill="#8c693f" d="M2.932619 127.918541s-.480837.013718-.965571.007103C1.482313 127.919029 1 128 1 128c0-.444443 0-.888893.319822-1.680344 1.099976-.687339 1.880129-1.027679 2.968067-1.381454.714055-.056542 1.120327-.099648 1.726255.065414.1357 1.111451.071742 2.014733.007786 2.918015-.445871.037269-.891742.074539-1.779955-.038712-.771164-.315307-1.060169-.253265-1.309356.035622"/>
  <path fill="#5a522f" d="M3.980106 124.951645c-.780155.340332-1.560308.680672-2.660284 1.034683C1 124.285645 1 122.571281 1 120.428467c.580421.39859 1.160841 1.225639 1.990392 2.571365.495992.996391.742854 1.474098.989714 1.951813"/>
  <path fill="#625f2f" d="M1 91.333336c.745716-.318581 1.491431-.303818 2.599314-.051628.362166.237427.345633.636131.345633.636131s-.02144.490166-.249745.761742c-.228306.271568-.674012.302475-.674012.302475-.449139.012115-.898278.024238-1.684304.027145C1 92.555557 1 92.111115 1 91.333336"/>
  <path fill="#954e32" d="M160.041367 146.031631s.479217-.019027.718917-.025329C161 147.066666 161 148.133347 161 149.600006c-.551758.478088-1.103531.556168-1.706635.283554.182816-.856766.416977-1.362839.67276-2.199447.03949-.77118.057358-1.211838.075242-1.652482"/>
  <path fill="#757b93" d="M2.922285 32.44928c-.345033.348198-.79161.436184-1.580236.537445C1 32.555557 1 32.111111 1 31.333332c.606914.063023 1.213828.459379 1.922285 1.115948"/>
  <path fill="#494933" d="M161 59.666668c-.161865-.277569-.32373-.888474-.242798-1.583023C161 58.444447 161 58.888889 161 59.666668"/>
  <path fill="#5a522f" d="M1 128.25c0-.25.482313-.330971.726532-.323997.119572.316642-.072342.576652-.529028.930488C1 129 1 128.5 1 128.25"/>
  <path fill="#625837" d="M161 137.75c-.261673.085678-.499939-.107483-.858337-.508575.023101-.194657.189758-.210251.607376-.233628C161 137 161 137.5 161 137.75"/>
  <path fill="#6d5535" d="M91.963425 151.856689c-13.203133-1.094848-26.404801-2.207733-39.610371-3.272369-3.466946-.27948-6.945942-.40947-10.871849-.85675-.449158-.417023-.445869-.585419-.104595-.819352 3.927933-1.842712 7.597347-3.481765 11.062858-5.475265 1.145649-.659027 1.765591-2.231934 2.880867-3.56247.725209-2.078994 1.19545-3.982483 2.067452-5.880035 1.471733.004761 2.541714.003555 3.844757.246338.911152.92717 2.262741 1.737198 2.161705 2.273605-.876854 4.655396 2.438141 5.486618 5.613747 6.934372-.604073 4.978928 1.254875 7.170807 6.28144 6.83194 2.109352.353378 3.902802.494568 6.099129.647034 2.50293-.642167 4.602974-1.295594 7.036591-1.869446 1.401794 1.653839 2.470031 3.228119 3.538269 4.802398"/>
  <path fill="#785c36" d="M92.407776 151.908646c-1.512589-1.626236-2.580826-3.200516-4.006485-5.266449-.385353-1.869477-.413277-3.247315-.01387-4.630783 2.643028.647033 5.311042.727645 6.99192 2.056701 5.665901 4.479965 11.882042 5.21933 18.894333 3.895691.422501.002319.591507.001129 1.014526.159851 1.063584.74437 1.873154 1.328858 2.682724 1.91333.991326 1.329727 1.982651 2.659455 3.097451 4.257965-9.323113-.598922-18.769684-1.466644-28.660599-2.386306"/>
  <path fill="#706d35" d="M41.038628 146.973755c-.003292.168396-.006581.336792-.016205.757599-2.451039 2.814392-4.895741 5.376373-7.599556 8.127289-.45657.186081-.654026.183242-1.147801.186157-3.074596-.206604-5.852872-.418961-8.974811-.840576-.332602-1.590775-.321539-2.97229-.053303-4.789338.257172-.435531.737324-.498214.925333-.341674.418558-.909302.649109-1.975113.87966-3.04094.005502-.44284.011005-.885666.096428-1.776291.194978-.763382.105062-1.014679-.189824-1.20169-.45453-.623352-.909061-1.24672-1.456575-2.169251.42619-.506393.945362-.713623 1.760779-.832214.77469.699676 1.253135 1.310745 1.796134 2.2117 3.255272 5.240082 5.309083 5.306183 9.353364.362122 1.652301-.651337 3.059768-1.083801 4.499202-1.113922.063706 1.755234.09544 3.108139.127175 4.461029"/>
  <path fill="#ac9990" d="M133.023651 3.029194c.169037-.004662.338059-.009326.761109-.016551.404571 1.333996 1.046447 2.856774.622421 3.97559-2.082092 5.493783-1.350098 6.741549 4.1371 8.751021 5.405029 1.979393 10.582764 4.579477 16.157379 7.083025.169357 1.449696.041535 2.723589-.382553 4.094336-.744186.092624-1.192123.088398-2.232376-.14152-7.771713-3.055864-14.862732-6.145966-22.160675-8.627506-5.114212-1.739001-5.689781-3.265044-2.094971-7.548202 1.957916-2.332827 3.476074-5.034743 5.192566-7.570193"/>
  <path fill="#757b93" d="M54.668377 23.233023c18.407886 5.107464 35.504826.17773 52.393246-6.713654 4.285179-1.74858 8.777275-2.990068 13.512443-4.17314-.297668 1.084148-.933472 1.876873-1.941795 2.731871-6.154312 1.241438-11.400994 3.085606-12.99157 9.99243-4.789192 2.0282-9.215324 3.988447-14.06665 5.968952-9.137505.348389-17.849823.67652-26.719124.701985-3.500172-3.037928-6.843361-5.773186-10.18655-8.508444"/>
  <path fill="#9d8f91" d="M119.004784 15.015827c.63581-.792725 1.271614-1.58545 1.964119-2.687567.908226-1.152295 1.759758-1.9952 2.844268-3.027769 3.031304-2.110452 5.829621-4.03124 8.919205-6.111663-1.425217 2.375816-2.943375 5.077732-4.901291 7.410559-3.59481 4.283158-3.019241 5.809201 2.094971 7.548202 7.297943 2.48154 14.388962 5.571642 21.824951 8.625898.055908 1.059706-.144775 1.895329-.896881 2.908602-3.98761-1.770468-7.423843-3.718582-11.284058-5.678274-6.848831-1.108074-13.1576-2.259386-19.051071 2.290916-1.394417 1.076618-4.275314.859238-6.251533.360973-1.731873-.436658-3.153794-2.102626-4.712632-3.225582 1.17714-1.47431 2.174157-3.156723 3.576638-4.370691 1.786194-1.546089 3.900474-2.713148 5.873314-4.043604"/>
  <path fill="#bba49a" d="M54.499763 23.210938c3.511803 2.757343 6.854992 5.492601 10.055123 8.696208-.582604.589715-1.02216.711079-1.461712.832448-3.962784-2.210192-7.830383-4.630316-11.948647-6.497605-1.175228-.532863-3.32225.142462-4.608673.936266-11.395702 7.031843-23.786914 8.795866-36.974767 6.892359.72468-.988506 1.579175-1.535465 2.43367-2.082422 1.066962.019395 2.133925.038797 3.930116.271635 4.907393.85757 9.198908 2.098739 12.47353-2.016266.956268-.101099 1.912539-.202198 3.612019-.393902 4.002552-1.032864 8.057358-1.084478 10.338558-3.121906 3.604431-3.219258 7.238373-4.126776 11.655647-3.634051 0 0 .326523.09515.495136.117236"/>
  <path fill="#757b93" d="M53.890007 22.826281c-4.302654-.225304-7.936596.682214-11.541027 3.901472-2.2812 2.037428-6.336006 2.089042-9.987103 3.037952 1.169934-.97191 2.767468-1.898519 4.282944-2.944065 1.43129-.987469 2.776303-2.099987 4.263169-3.486954 3.268859-4.097198 7.284336-3.153724 11.680877-2.337574.665913.526345.926212 1.044047 1.30114 1.829169"/>
  <path fill="#f6f3f1" d="M62.809692 32.871536c.723034-.253311 1.16259-.374675 1.902176-.661724 9.01236-.49381 17.724678-.821941 27.185654-.984344 4.162979 1.141571 7.577286 2.11742 11.239021 3.317241 2.708664 1.362507 5.169915 2.501046 7.851494 3.89634 3.412659 2.782089 6.604988 5.307426 9.950264 8.077129.715599.761013 1.278244 1.277661 1.93924 2.114773 3.043182 4.104023 5.422126 8.628818 10.951454 8.904793-.486206.318847-.783264.46577-1.539933.615143-4.529281.030563-8.612869.030563-13.065254.030563 0 3.53857-.001793 6.338478.000504 9.138382.002296 2.801346.526359 6.136566-4.673363 4.002861v-12.84668h-13.350922v45.521942h13.515305c0-3.066421-.01487-5.856201.003304-8.645759.031593-4.847161.040145-4.847107 4.61457-3.857498v12.577636c4.821816 0 9.254929 0 13.675614.260018-.015809.607071-.019196.954109-.022599 1.301155-3.221374.064079-5.208404 1.742683-6.988907 4.404922-1.998596 2.988343-4.682075 5.518624-7.5177 8.638405-1.529014 1.330322-2.607902 2.270439-3.978088 3.388229-2.109413 1.731896-3.927536 3.286118-5.959152 4.924965-.443421.310593-.567231.584526-.991951.929802-3.435494.799073-6.463967 1.574768-9.875603 2.362488-8.584892.61264-16.780121 1.503037-24.991173 1.686875-3.878036.086822-7.786384-1.18042-11.995788-1.991776-5.464043-3.091454-10.613293-6.025269-15.794922-9.296394-3.28191-3.988831-6.247757-7.96782-9.91127-11.141465-1.616662-1.400482-4.649344-1.166366-7.249466-1.618583-.210307.055763-.64361.015777-.698592-.329605-2.024471-1.814904-3.993963-3.284424-6.000133-5.119728-.264816-3.133522-.492956-5.901261-.682848-8.946389.035664-.650154.033079-1.022934.133297-1.767212.035185-.876274-.032433-1.381034-.065014-2.129821-.079641-.710625-.194323-1.177224-.264746-2.092774-.023761-3.169525-.091778-5.890091-.089403-9.000862.082604-2.463493.09482-4.536774.107035-6.610062.06908-1.372154.138161-2.744308.179663-4.842147-.089419-1.176537-.151259-1.627388-.083655-2.454216.154142-1.431775.178843-2.48758.358456-3.879872 1.919092-1.804149 3.683273-3.271808 5.874584-4.669353 4.678913 1.157631 7.748941-.172844 9.791891-4.164574 1.039326-2.030739 2.519932-3.835632 3.80106-5.742615 3.249828-2.499687 6.499653-4.99937 9.880562-7.816902.897567-.622528 1.664047-.927204 2.720436-1.369419 1.42646-.70702 2.563015-1.276501 3.991844-1.990772 2.141376-.760246 3.990475-1.37571 6.123054-2.123116m32.787506 53.626732V58.591057H63.447926v45.322655h13.726818V86.29985c4.538231-.162475 4.581962-.162925 4.620857 3.636384.047226 4.613441.011215 9.227722.011215 14.091812h13.790726c0-5.633217 0-11.082047-.000344-17.529778M25.781935 71.509964v32.476677h13.727892V86.231293h4.652137v17.656097h13.793652c0-14.704597.003925-29.007553-.013107-43.310478-.000752-.627998-.193257-1.255764-.313462-1.987244H43.987175v17.722626c-4.317226.311775-4.408245.313332-4.465664-3.045341-.08387-4.906029-.021561-9.81456-.021561-14.829667H25.781769c0 4.182602 0 8.129792.000166 13.072678m46.351686 38.804489c-10.958309-1.204536-21.916622-2.409073-32.920177-3.618576 1.667831 11.334076 22.540245 22.442581 41.654918 22.347748 18.521759-.091889 39.059403-11.309418 40.486756-21.537544-16.023613.945388-32.161171 1.897506-49.221497 2.808372m32.386467-56.369823c5.75174.759941 11.503472 1.519882 17.836395 2.356613-5.480598-14.615742-28.926635-24.74436-48.66468-22.048542-16.667866 2.276493-33.164673 12.873058-34.001766 22.54322 21.258922-4.289413 42.518154-5.954807 64.830051-2.851291"/>
  <path fill="#b19b8e" d="M39.812607 45.93055c-.999939 2.148178-2.480545 3.953071-3.519871 5.98381-2.04295 3.99173-5.112978 5.322205-10.060268 3.915047-3.537417-.48645-6.379322-.65326-9.2321-.821297-.010872-.001232-.03574-.005634-.03574-.005634 3.131376-1.86258 6.186394-3.872971 9.417677-5.542149 2.708124-1.398933 5.56844-2.564358 8.467514-3.506603 1.43734-.467159 3.113491-.199555 4.962788-.023174"/>
  <path fill="#c8ad99" d="M15.018707 54.949848c.432699.012631.865398.025261 1.62201.045262.323911.007366.348779.011768.382926.392761.355633 2.124286.677117 3.867573.679249 5.752128-1.44737.382573-2.575392.623875-3.703415.865178-.478842-.300892-.957685-.601784-1.788716-1.330933-.644132-2.176373-.936073-3.924484-1.228015-5.6726.169167-.005558.338335-.01112 1.138744-.017254 1.386566-.011902 2.141892-.02322 2.897217-.034542"/>
  <path fill="#baa497" d="M13.998734 62.405464c1.128766-.64159 2.256788-.882892 4.011158-1.260887 1.23805-.111061 1.849752-.085434 2.461456-.059803-.0247 1.055805-.049401 2.11161-.442862 3.577396-.914613.73906-1.460466 1.068146-2.006321 1.397232-.443628.015748-.887258.031487-2.001457.027634-1.123489-.039032-1.57641-.058464-2.02933-.077904.002204-1.067794.004409-2.135585.007356-3.603668m-3.370204-7.37133c.646158 1.715626.938099 3.463737 1.299827 5.584488-4.477684-1.870709-4.776832-2.898853-1.299827-5.584488"/>
  <path fill="#9898a9" d="M13.803148 66.149384c.64115-.120812 1.094071-.10138 1.885111-.0439-.520972.449257-1.380063.860466-2.462425 1.081734-.057728-.459214.146391-.695084.577314-1.037834"/>
  <path fill="#baa497" d="M14.921523 54.664368c-.658141.296802-1.413467.30812-2.546235.313255.564721-.203701 1.506886-.401218 2.546235-.313255"/>
  <path fill="#757b93" d="M27.919861 30.180418c-2.79608 4.178148-7.087595 2.936979-11.595034 2.063128 3.485981-.861903 7.301237-1.494086 11.595034-2.063128m-16.166506 1.606333c-.613093.748398-1.467588 1.295357-2.539219 2.061035-.667354.200947-1.117571.183178-1.897498-.074211-.326159-.41441-.322608-.589211-.319058-.764015 1.504791-.474751 3.009581-.949501 4.755775-1.222809"/>
  <path fill="#bba49a" d="M6.617065 33.027573c.376965.156791.373414.331592.36213.76889-.942981.163544-1.878229.06459-2.913907-.295414.656799-.325855 1.414031-.390659 2.551777-.473476"/>
  <path fill="#f2f2ee" d="M132.734756 58.120319c.310975-.118805.608033-.265728 1.138871-.70129.247696-.260521.118713-.474579.276306-.377067.541122.510025.924667.922542 1.518204 1.782379 1.243545 7.024513 2.277099 13.601723 3.229049 20.610969-.004333 2.474099.072937 4.516144.150208 6.558197-.165467 1.369698-.330948 2.739396-.603485 4.855996-.230378 2.544616-.353714 4.342323-.477051 6.140029-.321228 1.095032-.642456 2.190056-1.152283 3.847046-.348587 1.163201-.508591 1.764443-.668609 2.365685-.871476.743523-1.742936 1.487053-2.887085 2.33091-.269257-.246712-.26587-.59375-.232788-1.673874.029693-7.840866.029693-14.948654.029693-22.315293-3.277542-.171829-6.022552-.31575-9.06591-.475303-.206482-7.933861 6.815239-1.937096 8.74488-5.194199z"/>
  <path fill="#83715e" d="M114.792816 121.88739c1.078896-.940117 2.157784-1.880234 3.534805-2.899284 1.829453.226967 3.360779.53286 5.662858.908981 2.51181-.22242 4.252883-.51506 5.993942-.807716.006302.421264.012619.842537-.28772 1.646377-4.817314 3.61171.985367 3.591477 1.056473 5.3125-.191452-.004226-.575348-.024368-1.021332-.028595-4.826111-.676452-7.336563.720139-6.9832 5.637787.077377 1.07692-.507805 2.201447-.783798 3.318268.004059.014236.030693.027084-.291085-.119141-4.258781-1.219848-6.583992-3.625366-6.557838-8.077179-.015701-1.775543-.169403-3.33377-.323105-4.891998m2.681519 3.604469s.041916-.017082 0 0"/>
  <path fill="#cdbab1" d="M136.450134 103.373703c-.14415-.772682.015854-1.373924.412873-2.187271 3.760055-.410561 7.283126-.609032 10.96405-.238129-.242371 1.350632-.642624 2.131897-1.042877 2.913162-3.343293-.105445-6.6866-.210884-10.334046-.487762"/>
  <path fill="#925239" d="M130.320877 119.061829c-2.077515.320198-3.818588.612838-5.944122.885719-.455239-5.77375 3.94313-3.411194 7.18193-3.944397.438507.740028.441239 1.478424.445252 2.585022-.448014.394173-.897309.420143-1.68306.473656"/>
  <path fill="#59503c" d="M152.079208 101.187691c1.736725-.114861 3.473435-.229714 5.565537-.261277 1.964279 4.57531-1.170685 4.074364-4.228714 4.066872-.666748-.159508-.912521-.355987-1.185623-1.024185-.088166-1.21714-.11969-1.999275-.1512-2.78141m3.396881 2.000519.108994-.351662s-.252258.224274-.108994.351662"/>
  <path fill="#84875f" d="M151.847946 101.314346c.262772.65548.294296 1.437615.231751 2.472412-1.538742.226983-2.983429.201317-4.861801.125184-.033463-.831742.36679-1.613007.879211-2.707077.112183-.312813.516769-.372231.716492-.416245 1.067505.188118 1.935287.420258 3.034347.525726"/>
  <path fill="#7c5b37" d="M6.338288 127.962433c-.252402-.944084-.188444-1.847366-.271302-3.1782-.146815-.427551-.067807-.875191-.067806-.875191.356821-1.044716.713642-2.089439 1.183842-3.613937.148088-.586205.232143-.706055.20759-.796364-.05716-.210228-.166634-.406235-.25491-.608009 0 0 .03007-.491577.037759-.738938.287248-1.635604.566807-3.023857 1.195297-4.774856 1.079676-.353279 1.810419-.343804 2.497829.028122-1.603821 4.475906-.305647 6.300606 4.384702 5.802505 1.087317.758133 1.93867 1.312065 2.665043 2.175766-1.562284 1.628884-2.999593 2.948006-4.436902 4.267121.249791.444984.499583.889961.749376 1.334945 1.588436 0 3.176874 0 4.763309.409485-.040503 1.504227-.079004 2.598969-.117506 3.693711-.707804-.059083-1.415607-.118165-2.477024-.202881-2.494913-.582093-4.636213-1.138565-7.093838-1.789032-1.093917-.42714-1.871509-.7603-2.965459-1.134247"/>
  <path fill="#757038" d="M18.907803 131.49205c.005308-1.498199.043809-2.592941.285049-4.292038.723095-.789413 1.24345-.974449 1.880611-.83107 1.364974.777039 2.613144 1.225662 3.875649 2.068405.035637 1.445588.05694 2.497055.18243 3.845429.331816 1.092667.559447 1.888428.485592 2.795105-.758566 1.009476-1.215645 1.908066-1.995178 2.832397-.75173.067475-1.181008.109223-1.841252.235627-.674552.280929-1.118137.477203-1.561721.673461-.000002 0-.115744-.412338-.209944-.900726-.363442-.97995-.632683-1.471496-.901926-1.963043-.05537-1.353363-.110743-2.706726-.19931-4.463547"/>
  <path fill="#564f2e" d="M24.634558 147.02153c.186836 1.076569-.043715 2.14238-.606842 2.884033-.541809-.539779-.783032-.710083-1.056242-.835098-1.343966-.150314-2.687933-.300629-4.031901-.450958-.012874-.42598-.025747-.851959-.038622-1.277939 1.772074-.11026 3.544146-.22052 5.733607-.320038m-3.683461-6.059479c.278086 3.407975-.954597 4.692444-5.097846 2.733017 1.445041-1.046173 2.510128-1.817276 4.114622-2.654617.539407-.066254.983224-.0784.983224-.0784m1.060576-2.900817c.429275-.041733.858553-.083481 1.825138.110183.734774 1.087845.932236 1.940308 1.129698 2.792771-.519173.207229-1.038345.414459-1.753615.825164-.483638.031952-.731607-.184829-1.081943-1.010711-.134388-1.281693-.126833-1.999542-.119278-2.717407"/>
  <path fill="#646032" d="M21.780704 138.145905c.223414.633194.215859 1.351043.211976 2.426834-.170308.364074-.344288.370208-.779927.382827-.261656.006485-.705473.018631-.926372.029572-.202162-.472412-.183426-.955765-.116043-1.802445.492229-.559585.935814-.755859 1.610366-1.036788"/>
  <path fill="#494c2d" d="M18.933538 136.145157c.442818.301987.712059.793533 1.007899 1.570282-.376093-.270111-.778784-.825409-1.007899-1.570282"/>
  <path fill="#494d2a" d="M22.984295 149.30835c.260389-.11287.501612.057434.855411.440673.14457.167649-.335582.230332-.576545.251664-.240961.021331-.266047-.454453-.278866-.692337"/>
  <path fill="#564f2e" d="M24.972437 144.301178c.280998-.059876.370914.191421.159616.622986-.096243.115982-.145727-.376099-.159616-.622986"/>
  <path fill="#626138" d="M137.000519 147.993759c-2.264801-1.110702-4.529587-2.22139-7.01532-3.98677-2.793732-1.753251-5.366539-2.851807-8.16967-4.105164-.093544-1.736206.043228-3.317627.18-4.899033.000008 0-.026626-.012848.369202-.010711 2.47245.344268 4.549072.686401 6.69255 1.379623 1.357392 4.29744 3.633942 6.877152 8.222062 6.693588 1.226577-.049072 2.480392.583069 3.652786 1.231858-1.356506 1.451782-2.644058 2.574188-3.93161 3.696609"/>
  <path fill="#575834" d="M137.269287 148.221649c1.018784-1.350311 2.306336-2.472717 3.955429-3.998138.815888-1.007935 1.270264-1.612854 1.943222-2.457245.429184-1.063065.639801-1.886673 1.179657-2.728073.76883-.021103 1.208405-.024399 1.722656.259201 1.354203 1.090713 2.633744 1.894516 3.916779 3.099121.008041 1.469467.012604 2.538162-.328003 3.591217-1.563019-.095627-2.780868-.175613-4.050568-.258987.146668 2.021926.264283 3.643325.381897 5.264739-2.817428-.847991-5.634872-1.695968-8.721069-2.771835"/>
  <path fill="#52482e" d="M146.123856 151.281296c-.251114-1.909226-.368729-3.530625-.515397-5.552551 1.2697.083374 2.487549.16336 4.048462.257217.343079.013901.339157.009903.436219.332672 2.735244 5.136612 6.53862 1.673737 9.851364 1.696014-.234162.506073-.468323 1.012146-.833634 1.766083-3.867157 1.548874-7.603164 2.849884-11.724884 4.171356-.633346-.780685-.880996-1.581832-1.26213-2.670791"/>
  <path fill="#555632" d="M122.045853 140.056625c2.572807 1.098557 5.145614 2.197113 7.835006 3.620743-3.803001 2.112961-7.722595 3.900833-11.776062 6.02417-.943443-.249023-1.753013-.833511-2.625785-1.857819 2.130126-1.908523 4.323448-3.377227 6.515525-5.214263.016266-1.10318.033791-1.837998.051316-2.572831"/>
  <path fill="#403d2d" d="M139.375244 86.094719c-.405121-2.143265-.482391-4.18531-.092041-6.650444 3.026993.323784 5.586334 1.070663 8.153732 1.819885.252823-1.476501.406357-2.37326.559906-3.270027.804932.249329 1.609864.498657 2.702774.882133-1.078063 8.122681-4.839508 10.517807-11.324371 7.218453"/>
  <path fill="#58583e" d="M138.342743 96.975525c-.252548-1.783699-.129212-3.581406.173248-5.716782 4.422409 3.152748 4.426102 4.101609-.173248 5.716782"/>
  <path fill="#888595" d="M118.632271 15.0781c-1.600327 1.268183-3.714607 2.435242-5.500801 3.981331-1.402481 1.213968-2.399498 2.896381-3.576638 4.370691 1.558838 1.122956 2.980759 2.788924 4.712632 3.225582 1.976219.498265 4.857116.715645 6.251533-.360973 5.893471-4.550302 12.20224-3.39899 19.120056-1.958584 2.691529 3.702832 1.779847 5.573807-2.088577 6.652293-1.668869.465269-3.044464 1.982473-4.553299 3.021806-2.118469.201157-4.236923.402314-6.980682.858643-1.053719.293354-1.482147.331539-2.257263.30944-.812912-.089138-1.279137-.117992-1.650635-.476158 2.926315-2.344982 5.757919-4.360656 8.589508-6.376331-.241989-.587011-.483994-1.174023-.725998-1.761034-1.874847.549721-4.298622.545149-5.519989 1.754715-3.448639 3.4153-7.104706 3.070921-11.049179 1.627516-2.488152-.910488-4.924149-1.963478-7.385689-3.284554-.005928-.774637-.009712-1.21727-.013496-1.659902 1.227523-6.838875 6.474205-8.683043 12.628517-9.924481"/>
  <path fill="#baa18f" d="M122.779182 48.310486c-.562637-.516647-1.125282-1.033295-1.62461-2.114044 4.212867-1.549748 8.322952-3.063488 12.52272-3.377438 4.497757-.336227 9.005585.276608 11.332321-4.812748.519577 3.139507 1.039154 6.279015 1.759506 9.704746.199784.724415.198792 1.162613-.128311 2.042073-1.135528 1.796184-1.944931 3.151104-3.189056 4.426513-3.105088-.281704-5.775452-.483902-8.533478-.997856-1.058594-1.79261-1.845535-3.444698-3.034683-4.722481-3.689804-3.96482-5.433678-3.931186-9.104409-.148765"/>
  <path fill="#c5ac9a" d="M144.693619 37.815811c-2.010742 5.279801-6.51857 4.666966-11.016327 5.003193-4.199768.31395-8.309853 1.82769-12.675675 3.133076-3.408592-2.205605-6.600921-4.730942-9.759712-7.636383.214073-.431107.394615-.482102 1.035408-.473793 4.408486-.150315 8.754013 1.336441 11.828598-2.603291.428437-.038185.856865-.07637 1.608536-.126228 4.61174.376274 8.910263.680435 13.184113 1.19112 1.852554.221363 3.654266.868256 5.795059 1.512306"/>
  <path fill="#8f8a98" d="M133.306015 34.228577c1.199997-1.257664 2.575592-2.774868 4.244461-3.240137 3.868424-1.078486 4.780106-2.949461 2.512573-6.640717 3.367234 1.615784 6.803467 3.563898 10.578217 5.581181-1.082398 1.655866-2.354248 4.399812-3.953064 4.605772-4.282944.551735-8.705963.015987-13.382187-.306099"/>
  <path fill="#7c6a5a" d="M145.995575 139.010498c-.439575.003296-.87915.006592-1.904053.018738-.75592.013794-.926529.018707-1.384521-.03711-.774277-.369079-1.261154-.677429-1.604813-1.271469.069183-1.432724-.004883-2.579742-.15979-4.049316-1.003845-.739166-1.926819-1.155762-2.998764-1.781021-.401291-.437729-.653641-.666809-.922256-1.138031-.016266-.242157-.053879-.72609.184738-.940827 1.426696-1.081329 2.614792-1.947898 3.802887-2.814468 1.819519-.116226 3.639023-.23246 5.656524.199814.199326 2.093002.200653 3.637497.201981 5.181991 1.409836-.47258 2.819672-.945159 4.428513-1.159164-.623429 3.507278-.564179 7.399704-5.300446 7.790863"/>
  <path fill="#625837" d="M146.070251 139.297394c4.661591-.678055 4.602341-4.570481 5.35286-8.366867.4711-1.677613 1.014114-2.807541 1.557129-3.937485.444687.003487.889358.006973 1.667068.001999 1.568283 3.113083 2.803574 6.234604 4.17389 9.693039-1.455811.464264-3.046692.591614-4.863709 1.298157-1.475403 1.722625-2.724686 2.866058-3.973953 4.009491-1.279541-.803818-2.559082-1.607621-3.913285-2.698334"/>
  <path fill="#867462" d="M152.770599 126.829514c-.333374 1.293472-.876388 2.4234-1.546493 3.842453-1.536926.761673-2.946762 1.234252-4.356598 1.706832-.001328-1.544494-.002655-3.088989.064926-4.998794 1.922119-.481545 3.77533-.597786 5.838165-.550491"/>
  <path fill="#7c6a5a" d="M130.944641 126.052483c-.262573-1.725258-6.065254-1.705025-1.245773-5.000756.308807-.066597.303757-.05365.315903.236595 1.002395.763504 1.992645 1.236763 2.98291 1.71003.790481.628716 1.580948 1.257439 2.668182 2.268784-.025116 1.166832-.347015 1.951027-.947327 2.565872-1.443573-.706406-2.608734-1.243469-3.773895-1.780525"/>
  <path fill="#867361" d="M134.996964 128.002365c.321884-.784202.643783-1.568397.978378-2.680923.182846-.336151.352981-.343979 1.022491-.140702 1.336426.406556 2.173462.601998 3.010483.79744.267914.178017.50618.389419.857758.826523-1.045166 1.058861-2.233262 1.92543-3.84758 3.140655-.662079.55188-.859665.787201-1.018753 1.054642.000259 0 .000335 0-.214371-.244385-.40593-1.080658-.597168-1.916961-.788406-2.75325"/>
  <path fill="#83715e" d="M133.263489 122.921509c-1.256073-.396424-2.246323-.869683-3.243195-1.635842 4.459625-.666702 4.459625-.666702 3.243195 1.635842"/>
  <path fill="#7c6a5a" d="M139.921478 125.693413c-.750183.089325-1.587219-.106117-2.668228-.518067.6978-.066566 1.639603.083367 2.668228.518067"/>
  <path fill="#96a4be" d="M19.824299 71.994843c.335283 2.002967.323067 4.076248-.115091 6.57283-2.222628 1.469841-4.019312 2.516372-5.815997 3.562912-2.507983-1.825302-5.015965-3.650605-7.751302-5.717797 1.841186-1.292236 3.81633-2.656181 6.003677-3.307609 2.339479-.696747 4.879005-.721779 7.678713-1.110336"/>
  <path fill="#9898a9" d="M18.188541 66.231369c.379479-.501053.925332-.830139 1.710503-1.19323.301157.416848.362997.867699.323389 1.648102-.690136.125405-1.278826-.07875-2.033892-.454872"/>
  <path fill="#494933" d="M147.855072 77.673828c-.01178 1.217072-.165314 2.113831-.418137 3.590332-2.567398-.749222-5.126739-1.496101-8.072128-2.251938-1.419571-6.586158-2.453125-13.163368-3.071808-20.031849.835694-.206264 1.256516-.12125 1.932343-.015609.42543.027137.59584.033645 1.018188.046756.419632-.002697.587372-.011997.806504.289338.534088 1.257854 1.016799 2.205074 1.499511 3.152294.328888-.222981.657791-.445965.986695-.668946-.848542-.928623-1.697083-1.85725-2.523056-3.015277.022537-.229405.066101-.688355.461303-.678334 5.595475 2.422489 9.461548-.764358 13.735535-3.094433.209534.024296.630753.048123.630753.048123s.054718.486759.093841.728622c-.738449 1.353794-2.87616 2.659256.761719 3.206616.303665.020477.307937.023555.307937.023555-.030944.765347-.061889 1.530697-.128662 2.679654-2.285202.694095-4.534561 1.004585-7.200485 1.37257.515671 1.947765 1.087555 4.107784 1.746765 6.597683-.516556 0-1.738495 0-3.452041.180862-.9189.352799-1.346207.524742-1.773499.696678.613892.483116 1.227783.966225 1.84166 1.449333 0 .000008.481765.005173.722641.010071.144806 1.79113.048736 3.577362.094421 5.683899"/>
  <path fill="#4a4830" d="M147.027618 71.650284c-.603485-.153534-1.217376-.636643-1.831268-1.119759.427292-.171936.854599-.343879 1.532837-.522293.263306.433182.275681.872826.298431 1.642052"/>
  <path fill="#acb1c2" d="M20.109909 87.984406c.114679.46659.229361.933189.120209 1.754547-.098887 1.033371.026058 1.711982.151005 2.390594.002584.372772.005169.745552-.357682 1.459488-2.848364.998497-5.331293 1.65583-8.17246 2.344246-.837451.036301-1.316665.041519-1.79588.046745-.809771-.915268-1.619542-1.830536-2.628809-3.162353.069883-1.594727.339262-2.772911.608642-3.951088 2.090469-1.135155 4.180939-2.27031 6.791377-3.512459 2.107845.80542 3.695723 1.71785 5.283598 2.63028"/>
  <path fill="#c0ada5" d="M20.154167 87.535446c-1.632133-.46347-3.220011-1.3759-5.132623-2.443237-.561857-.893479-.798977-1.632042-1.082215-2.666107 1.750567-1.342057 3.547251-2.388588 5.699488-3.468216.42357 2.687469.491587 5.408035.51535 8.57756"/>
  <path fill="#71743b" d="M8.000197 88.526917c-.234643 1.517845-.504022 2.696029-.847781 4.147232-.917301.02713-1.760223-.218766-2.905308-.610489-.302161-.145821-.285628-.544525-.276643-.742447-.181097-2.048958-.371177-3.900002-.802722-6.062332.713834-1.209465 1.669131-2.107621 2.624431-3.005776.526241 1.022385 1.147287 2.009102 1.549595 3.078125.339617.902435.425503 1.90036.658428 3.195687"/>
  <path fill="#5c5a47" d="M154.000473 54.971867c-4.064438 2.35437-7.930511 5.541217-13.457779 2.794567.929581-1.118801 2.186142-1.90342 3.749207-2.750237 1.152618-.908798 1.998748-1.755386 2.844879-2.601974 1.396759-.7393 2.793518-1.4786 4.529495-2.200005.95816 1.061485 1.577118 2.105084 2.269333 3.701485.070434.720592.067642.888378.064865 1.056164"/>
  <path fill="#ab9b99" d="M147.102783 52.006363c-.812134 1.254448-1.658264 2.101036-2.837799 2.805183-.333389-.142448-.378494-.552448-.378494-.552448.809387-1.354919 1.61879-2.709839 2.753769-4.177448.359878.430492.394211.973675.462524 1.924713"/>
  <path fill="#746b4e" d="M13.951223 109.060562c-3.140734-1.871658-6.281473-3.743324-9.683842-5.839668 1.360583-1.364182 2.982797-2.503685 4.933804-3.696892 2.062679 1.561089 1.012767 6.547218 6.031677 4.709602 1.428759 1.749543 2.625943 3.253579 3.806288 5.15712-.027479 1.461655-.038116 2.523796-.378908 3.585762-.770222-.002205-1.210289-.004226-1.800091-.279754-1.069464-1.394379-1.989197-2.515267-2.908928-3.63617"/>
  <path fill="#958f78" d="M15.001291 103.988098c-4.787339 2.083122-3.737427-2.903007-5.710334-4.762756-.056442-1.086884.126137-1.928795.53643-3.008011.706929-.242531 1.186143-.247749 2.007725.106064.404533 1.132141.466698 1.90525.365024 2.82048.455054.409088 1.073947.676033 1.77046 1.231323.4157.772774.753781 1.257203 1.081732 2.053254-.023765.727638-.037401 1.143638-.051037 1.559646"/>
  <path fill="#71743b" d="M3.12318 93.088737c-.10199-.106681.343716-.137588.564839-.163948.221124-.026359-.05716.295762-.05716.295762s-.405688-.025132-.507679-.131814"/>
  <path fill="#423e2c" d="M149.923645 74.604172c.546021-.043938.935287.074836 1.324539.193619-.108246.25737-.216476.514732-.324722.772102-.385529-.26767-.771072-.535339-.999817-.965721"/>
  <path fill="#a06740" d="M13.50688 109.047035c1.364074 1.13443 2.283807 2.255318 3.106348 3.662873-.097191.286666-.591313.299285-1.016054.295288-1.845579.009803-3.266416.023613-4.687252.037422-.730745-.009484-1.461488-.018959-2.557863-.028717-1.473009-.332482-2.580388-.664681-4.032811-1.063935 1.299289-5.434722 5.72058-1.945175 9.187632-2.902931"/>
  <path fill="#6a683e" d="M154.210022 54.996162c-.206772-.192081-.20398-.359867-.193695-.779663.860367-.175518 1.713287-.099025 3.586029.068932-1.414871.454246-1.820847.584583-2.494202.736885-.267379.021969-.688598-.001858-.898132-.026154"/>
  <path fill="#4c4c2e" d="M149.98703 142.396515c1.245773-1.54422 2.495056-2.687653 3.873474-4.117279 5.287949.823608 2.919495 3.570328 1.039551 6.635727-1.954529.713135-3.429245.897018-4.903977 1.080902 0 0 .003922.003998.006028.005752-.002472-1.06694-.007035-2.135635-.015076-3.605102"/>
  <path fill="#575834" d="M150.09314 146.318634c1.37767-.506653 2.852386-.690536 4.626617-1.091949 1.775208-.026749 3.250916.164047 5.024109.579895.279617.665695.261749 1.106353.222259 1.877533-3.334365.308258-7.137741 3.771133-9.872985-1.365479"/>
  <path fill="#5a522f" d="M3.201594 127.949295c-.019788-.319641.269217-.381683.704228-.091003-.074293.124511-.254773.123138-.704228.091003"/>
  <path fill="#494933" d="M155.998596 58.998058c-.001404-.001941.179398-.275879.179398-.275879s-.01268.210961-.093201.24593S156 59 155.998596 58.998058"/>
  <path fill="#584d2c" d="M5.997257 123.606041c.001922.303001-.077086.750641-.129928.970024-.459113.262489-.865385.305595-1.579439.362137-.554644-.464272-.801506-.941979-1.16737-1.660385.523003-.924477 1.165007-1.608254 2.206205-2.717209.283225 1.161705.475918 1.952064.670532 3.045433"/>
  <path fill="#584c2c" d="M7.110713 119.187286c.113265-.09478.222739.101227.279899.311455.024553.090309-.059502.210159-.199039.448448-.105168-.066551-.105509-.264953-.08086-.759903"/>
  <path fill="#4d3f30" d="M25.027355 131.985886c-.021303-1.051484-.042606-2.102951.256611-3.714051 1.543024-1.078918 2.735893-1.948661 3.993313-2.054977 4.670532-.39492 6.265785-3.055855 6.229034-7.571732 4.307946-3.243347 4.779065 2.397354 7.446026 3.068467 1.910698 3.977935 3.800415 7.595962 5.92133 11.656631 1.580188-.755692 2.924984-1.714584 4.400894-2.003387 1.152733-.225556 2.468269.380905 3.71146.61766-.470238 1.903503-.940479 3.806992-1.990494 5.931854-1.900017.835144-3.976482 2.31749-4.423485 1.928299-4.455627-3.879287-6.874057-.122055-9.692562 2.265732-1.407463.432465-2.81493.864929-4.549621 1.247894-.619641-.5251-.912056-1.000717-1.10561-1.71463.323242-.703033.547619-1.167755 1.123524-1.699844 3.079986-1.69664 5.808448-3.325897 8.35984-4.849426-2.535111-2.212296-4.6418-4.050721-7.822651-6.826523-2.899574.909179-7.378592 2.313598-11.857609 3.718033"/>
  <path fill="#735c3f" d="M61.002651 130.135056c3.894612.653717 7.80296 1.920959 11.680996 1.834137 8.211052-.183838 16.406281-1.074235 25.27298-1.527237 3.698219.816314 4.862282 2.066558 1.694282 4.411041-7.801986.638611-15.261123 1.424133-22.948814 2.233719.103874 2.002273.178459 3.439865-.085823 4.903427-.788925.078323-1.238983.130691-2.045982.055694-2.092118-.424545-3.827286-.72171-5.562462-1.018875-3.175438-1.029953-6.490433-1.861175-5.613579-6.516571.101036-.536407-1.250553-1.346435-2.158157-2.583145-.230828-.966415-.232136-1.379303-.233441-1.79219"/>
  <path fill="#584e3c" d="M60.687859 129.977417c.316097.570526.317405.983414.315162 1.705841-1.07352.310745-2.143501.311951-3.615238.30719-1.644951-.242706-2.960487-.849167-4.11322-.623611-1.47591.288803-2.820706 1.247695-4.400894 2.003387-2.120915-4.060669-4.010632-7.678696-5.593018-11.736542.753105-.498329 1.198883-.556839 1.644661-.615349 5.149254 2.933815 10.298504 5.86763 15.762547 8.959084"/>
  <path fill="#4c4b30" d="M40.911453 142.512726c2.786534-2.790131 5.204964-6.547363 9.660591-2.668076.447003.389191 2.523468-1.093155 4.168518-1.752823-.535503 1.109192-1.155445 2.682099-2.301094 3.341126-3.465511 1.9935-7.134925 3.632553-11.062858 5.475265-.369717-1.287353-.401451-2.640258-.465157-4.395492"/>
  <path fill="#514430" d="M87.960083 142.017059c.027931 1.377823.055855 2.755661.107636 4.545563-2.07618 1.065521-4.176224 1.718948-6.67363 1.960022-.378586-1.489914-.359818-2.567474-.124832-3.908447 1.207679-4.278244 3.675224-4.197952 6.690826-2.597138"/>
  <path fill="#5a3429" d="M81.053047 144.877609c-.018776 1.077561-.037544 2.155121-.061836 3.633774-1.798973.259888-3.592423.118698-5.694344-.662353-.328865-2.318528-.34925-3.997178-.369636-5.675827.450058-.052369.900116-.104737 1.961151-.052445 1.79554.988709 2.980102 1.872772 4.164665 2.756851"/>
  <path fill="#4a3f2e" d="M74.57029 142.045837c.377327 1.806015.397712 3.484665.410667 5.591004-4.718086.978729-6.577034-1.21315-5.972961-6.192078 1.735008-.120636 3.470176.176529 5.562294.601074"/>
  <path fill="#7f6139" d="M81.269257 144.614197c-1.400773-.620667-2.585335-1.50473-4.042008-2.519409-.346695-1.568207-.42128-3.005799-.525154-5.008072 7.687691-.809586 15.146828-1.595108 22.968132-1.996811.36216.383804.385201.858627-.011261.948944-3.012344.702972-5.628227 1.315613-8.244118 1.928253.081742.431137.163483.862274.245232 1.293411 5.421333 1.252594 10.836952 2.976441 16.329025.135392 2.021515 3.093948 4.026291 5.829162 6.031075 8.564376-6.758797 1.327164-12.974938.587799-18.640839-3.892166-1.680878-1.329056-4.348892-1.409668-6.991913-2.056701-3.442947-1.595169-5.910492-1.675461-7.118171 2.602783"/>
  <path fill="#606037" d="M114.273674 147.963806c-2.258278-2.738739-4.263054-5.473953-6.072411-8.765045.405388-1.085968.615349-1.616089 1.044846-2.088562.770897.008041 1.322243-.04155 2.091896-.100586.2183-.009445.654953-.02684 1.003761.041061 3.450547 2.027649 6.552285 3.987381 9.654023 5.947129-2.193329 1.468689-4.386651 2.937393-6.770791 4.686004-.359817.281128-.528823.282318-.951324.279999"/>
  <path fill="#646032" d="M35.99625 140.011185c-.22438.464706-.448757.929428-1.172756 1.732742-2.942801.635971-5.385979.933334-7.829159 1.230698-.478447-.611054-.956892-1.222123-1.731582-1.921799-.493706-.941101-.691168-1.793564-1.103487-2.907166.242223-1.159713.699302-2.058303 1.707143-2.82373 2.951594.133163 5.352423.133163 8.656243.133163.219726.679352.84666 2.617722 1.473598 4.556092"/>
  <path fill="#7b5836" d="M27.058887 143.264526c2.378628-.587265 4.821806-.884628 7.665745-1.282287.693173.37532.985588.850937 1.360394 1.594909-3.717056 4.993561-5.770867 4.92746-9.026139-.312622"/>
  <path fill="#777d94" d="M105.640701 25.07053c.366837.374683.370621.817316.366677 1.970386-1.044571 2.899563-2.081414 5.088688-3.118264 7.277817-3.414306-.975845-6.828613-1.951694-10.566406-3.113525 4.102669-2.146231 8.528801-4.106478 13.317993-6.134678"/>
  <path fill="#5b6729" d="M95.597366 86.997719c.000176 5.94828.000176 11.39711.000176 17.030327H81.806816c0-4.86409.036011-9.478371-.011215-14.091812-.038895-3.799309-.082626-3.798859-4.620857-3.636384v17.613862H63.447926V58.591057h32.149272c0 9.374306 0 18.640762.000168 28.406662M81.861099 69.945862c-1.231773-.994286-2.463547-1.988564-4.638824-3.744431v10.137871c6.318428 1.818268 4.209175-2.891128 4.638824-6.39344"/>
  <path fill="#5a6729" d="M132.289062 58.150887c.445694 5.940559.445694 11.911682.445694 17.723617-1.929641 3.257103-8.951362-2.739662-8.74488 5.194199 3.043358.159553 5.788368.303474 9.06591.475303 0 7.366639 0 14.474427-.017273 22.055268-4.450378.47306-8.883491.47306-13.705307.47306V91.494698c-4.574425-.989609-4.582977-.989663-4.61457 3.857498-.018174 2.789558-.003304 5.579338-.003304 8.645759h-13.515305V58.476013h13.350922v12.84668c5.199722 2.133705 4.675659-1.201515 4.673363-4.002861-.002297-2.799904-.000504-5.599812-.000504-9.138382 4.452385 0 8.535973 0 13.065254-.030563M25.781853 71.012115c-.000084-4.445037-.000084-8.392227-.000084-12.574829H39.49995c0 5.015107-.062309 9.923638.021561 14.829667.057419 3.358673.148438 3.357116 4.465664 3.045341V58.589668h13.641872c.120205.73148.31271 1.359246.313462 1.987244.017032 14.302925.013107 28.605881.013107 43.310478H44.161964V86.231293h-4.652137v17.755348H25.781935c0-10.929787 0-21.703232-.000082-32.974526"/>
  <path fill="#ae2131" d="M72.595001 110.335083c16.598946-.931496 32.736504-1.883614 48.760117-2.829002-1.427353 10.228126-21.964997 21.445655-40.486756 21.537544-19.114673.094833-39.987087-11.013672-41.654918-22.347748 11.003555 1.209503 21.961868 2.41404 33.381557 3.639206m31.479248-56.435707c-21.866058-3.058262-43.12529-1.392868-64.384212 2.896545.837093-9.670162 17.3339-20.266727 34.001766-22.54322 19.738045-2.695818 43.184082 7.4328 48.66468 22.048542-6.332923-.836731-12.084655-1.596672-18.282234-2.401867"/>
  <path fill="#818399" d="M103.136536 34.542706c.789428-2.413102 1.826271-4.602227 2.872985-7.169785 2.469269.610638 4.905266 1.663628 7.393418 2.574116 3.944473 1.443405 7.60054 1.787784 11.049179-1.627516 1.221367-1.209566 3.645142-1.204994 5.519989-1.754715.242004.587011.484009 1.174023.725998 1.761034-2.831589 2.015675-5.663193 4.031349-8.923371 6.594418-3.604949 1.319038-6.781311 2.09069-9.957679 2.862342-.180535.050995-.361077.10199-.795479.276337-2.715118-1.015182-5.176369-2.153721-7.88504-3.516231"/>
  <path fill="#6d5237" d="M121.994537 142.629456c-3.100486-1.591401-6.202224-3.551133-9.782272-5.7594-.668732-.478226-.888695-.674911-1.280319-1.03981-.349739-.459106-.589943-.681824-.880402-1.237656-.689567-2.095276-1.361465-3.822265-2.048149-5.836013-.025177-.477875-.035568-.669007-.045952-.860123.0177-.3219.14151-.595833 1.030213-.887131 2.435936-.047752 4.213096-.030189 5.990265-.012619.111846 4.234497 2.437057 6.640015 6.695831 7.859863.185005 1.727631.048233 3.309052.141784 5.045258.212792.889633.195267 1.624451.179001 2.727631"/>
  <path fill="#af9a88" d="M122.877541 48.630951c3.572372-4.102886 5.316246-4.13652 9.00605-.1717 1.189148 1.277783 1.976089 2.929871 2.827285 5.029488-.319351 1.564411-.518936 2.510063-.718536 3.455711 0 0 .128983.214058.084351.330773-5.777024-.015454-8.155968-4.540249-11.19915-8.644272"/>
  <path fill="#85715e" d="M44.892937 120.681023c-.413403.39582-.859181.45433-1.633271.59275-2.974288-.231293-3.445407-5.871994-7.772987-2.614639-.313335.215607-.354652.228332-.353859-.095017-.373527-1.068992-.747852-1.814651-1.341575-2.818283-2.095852-2.798858-3.972296-5.339744-5.84874-7.88063 2.389818.507988 5.4225.273872 7.039162 1.674354 3.663513 3.173645 6.62936 7.152634 9.91127 11.141465"/>
  <path fill="#c4c4cd" d="M15.062458 102.116829c-.338081-.484428-.676162-.968857-1.042072-2.002495-.006414-.724678.015004-.900139.108093-1.127548.071671-.051933.055902-.295082.055902-.295082s-.229385.244537-.497109.243477c-.619581.021484-.971438.044029-1.323296.066566-.062166-.773102-.124331-1.546211-.170628-2.709434 2.4988-1.047448 4.981729-1.704781 7.791845-2.425896.555327 2.703964.783467 5.471703.663607 8.642685-2.094114.138061-3.840227-.127106-5.586342-.392273"/>
  <path fill="#8c5d3c" d="M27.732201 107.920975c2.086748 2.485115 3.963192 5.026001 6.054657 8.195137.18655 1.367653.158084 2.10704-.242691 2.838196-2.766995-.007332-5.161684-.006432-7.458214-.315827.369888-2.089722.641618-3.869133.825071-5.963844-.712538-1.466835-1.336798-2.61837-1.731018-3.959931.789555-.386001 1.34907-.581977 1.908583-.777954.000002 0 .433305.039986.643612-.015777"/>
  <path fill="#768757" d="M27.033607 107.59137c-.504531.541359-1.064046.737335-2.22013 1.130569-1.32981.250244-2.063048.30323-3.167012.332077-1.110641-.037025-1.850557-.049911-2.590473-.062805-1.197187-1.504028-2.394371-3.008064-3.823129-4.757607-.217936-.661514-.2043-1.077514-.180534-1.805152 1.756244-.046456 3.502357.218711 5.633149.446426 2.354168 1.432068 4.32366 2.901588 6.348129 4.716492"/>
  <path fill="#5f563f" d="M107.550423 127.91983c.417404.16774.427795.358872.440727 1.09282-.005791.713882-.014137.884933-.382843 1.036056-1.080368.007706-1.800385.035324-2.71344.25676.26548 1.36618.724007 2.538513 1.191269 3.990677.024185.46582.039627.651825.02655 1.139312-.066734.702851-.104927 1.104233-.529007 1.527405-2.100006-.323578-3.814125-.66896-5.528251-1.014328 0 0-.023041-.474823-.042359-.711731 2.80584-2.728287 1.641777-3.978531-1.673271-4.806869 2.746658-.935334 5.775131-1.711029 9.210625-2.510102"/>
  <path fill="#9898a9" d="M20.626261 60.748287c-.766617.310856-1.378319.285229-2.29702.255024-.628481-1.747867-.949965-3.491154-1.294726-5.614208 2.818631-.212956 5.660536-.046146 8.770821.370186-1.495802 1.71719-3.259983 3.184849-5.179075 4.988998"/>
  <path fill="#6e5440" d="M115.115921 126.779388c-1.915169.199746-3.692329.182183-5.91478.145318 1.372849-1.573525 3.190972-3.127747 5.300385-4.859643.444992 1.380555.598694 2.938782.614395 4.714325"/>
  <path fill="#c4c4cd" d="M20.483925 91.758041c-.227749-.307106-.352694-.985717-.288845-1.775062.256412.394028.32403.898788.288845 1.775062"/>
  <path fill="#74704e" d="M134.149933 57.041962c.042007-1.04316.241592-1.988812.648605-3.241471 2.877762-.104805 5.548126.097393 8.653214.379097.434738.07951.479843.48951.506744.694161-1.22966.989265-2.486221 1.773884-3.811005 2.882664-.068206.324161-.11177.783111-.129364 1.013591-.017593.230484-.01947.220223-.01947.220223-.167755.009296-.335495.018596-.857788-.09787-.663254-.290657-.935242-.231476-1.170517.051781-.420837-.085015-.841659-.170029-1.887344-.41108-1.008408-.568554-1.391953-.981071-1.933075-1.491096"/>
  <path fill="#84603d" d="M128.990433 136.02063c-2.07663-.342148-4.153252-.684281-6.629761-1.042786-.119835-1.118957.465347-2.243484.38797-3.320404-.353363-4.917648 2.157089-6.314239 6.98555-5.231781.711258 3.472595.974213 6.534928.907165 9.593903-.770294-.001892-1.210601-.000412-1.650924.001068"/>
  <path fill="#96806b" d="M130.971344 136.022934c-.262939-3.062347-.525894-6.12468-.791168-9.593041-.00235-.406013.381546-.385871.572998-.381645 1.356628.541291 2.521789 1.078354 3.965362 1.78476.469666 1.005646.660904 1.841949.991455 3.268341-.843215 2.950226-1.825775 5.310348-3.120758 7.619751-.747573-.933197-1.182739-1.815674-1.617889-2.698166"/>
  <path fill="#6e5440" d="M117.495293 125.483322c.020958-.008545-.020958.008537 0 0"/>
  <path fill="#706a53" d="M155.404449 103.124512c-.071624-.06369.180634-.287964.180634-.287964s-.108994.351662-.180634.287964"/>
  <path fill="#865c3b" d="M16.021915 113.009193s.494122-.012619.741045-.025795c.686993-.011138 1.12706-.009117 2.139468.007493.57234.014579 1.056806.033149 1.069189.432739-.896866 4.659431 3.118088 4.242119 4.977396 5.940132-.317703.413658-.554074.586746-1.155812.705116-.539815.014824-.755502.028053-1.2401.134796-.723923.655197-1.178929 1.216881-1.862183 1.786484-.228247.007927-.684681.025452-.8862-.170135-.722147-.379212-1.242779-.562836-1.763409-.74646-.85135-.553933-1.702703-1.107865-2.796641-2.25589.097359-2.332215.437303-4.070351.777247-5.80848"/>
  <path fill="#5f5c35" d="M17.916332 121.383331c.645607-.126144 1.166239.05748 2.008639.628006.514577.623001.743013.8172.920831 1.219002-.020548 1.103066.045153 1.956619.110855 2.810188-.520355.185036-1.04071.370072-1.761802.749993-1.789175.194877-3.377613.194877-4.966049.194877-.249793-.444984-.499585-.889961-.749376-1.334945 1.437309-1.319115 2.874618-2.638237 4.436902-4.267121"/>
  <path fill="#9c6a3f" d="M15.597174 113.005196c.084797 1.742126-.255147 3.480262-.588471 5.608276-4.447763 1.092194-5.745937-.732506-4.142116-5.208412 1.464171-.376251 2.885008-.390061 4.730587-.399864"/>
  <path fill="#4b4a30" d="M36.347775 139.943802c-.978463-1.870987-1.605397-3.809357-1.825123-4.488709-3.30382 0-5.704649 0-8.354756-.244064-.476907-1.039825-.704538-1.835586-1.036354-2.928253 4.37483-1.701325 8.853848-3.105744 11.753422-4.014923 3.180851 2.775802 5.28754 4.614227 7.822651 6.826523-2.551392 1.523529-5.279854 3.152786-8.35984 4.849426"/>
  <path fill="#464230" d="M21.073462 126.368935c-.182507-1.181977-.248208-2.03553-.213042-3.388405.086828-.665642.072788-.831963.058747-.998291.455005-.561684.910011-1.123368 1.786766-1.673126.751628-.072663 1.081512-.15725 1.411396-.241837.27761-.116768.513981-.289856 1.061672-.757072.352558-.237809.808794-.36142.808794-.36142 2.394688-.000908 4.789377-.001808 7.861193-.003975.879097-.019951 1.08107-.038643 1.283039-.057343 0 0 .041317-.012725.060951-.026741.350086 4.300278-1.245167 6.961213-5.915699 7.356133-1.25742.106316-2.450289.976059-4.007645 1.660873-1.583027-.283127-2.831197-.73175-4.196172-1.508796"/>
  <path fill="#735838" d="M130.641357 136.019562c.765137.885864 1.200303 1.768341 2.284317 2.743103 1.098465.10292 1.548066.113586 2.360886.131546 1.144379-.974076 1.925522-1.95546 2.71106-2.927445.004409.0094-.008515-.02185.224136.182633 1.067505.75531 1.902344 1.306137 2.737198 1.856964.486893.308334.97377.616684 1.634613 1.233642.234573 1.127671.295181 1.946702.355789 2.765748-.454376.604904-.908752 1.209823-1.655716 1.888382-1.533905-.245774-2.78772-.877915-4.014297-.828843-4.58812.183564-6.86467-2.396148-8.222062-6.693573.373475-.352569.813782-.354049 1.584076-.352157"/>
  <path fill="#625837" d="M143.167938 141.766266c-.27919-.579559-.339798-1.39859-.286987-2.465515.284042-.252808.454651-.257721.881317-.253693.045471.832535-.165146 1.656143-.59433 2.719208"/>
  <path fill="#ab9b99" d="M112.277313 37.841904c2.71611-.830956 5.892472-1.602608 9.402695-2.592339.800087-.189228 1.266312-.160374 2.079224-.071236-2.727906 4.000016-7.073433 2.51326-11.481919 2.663575"/>
  <path fill="#867361" d="M134.92334 138.886902c-.4496-.010651-.899201-.021317-1.685242-.073532.646118-2.401673 1.628678-4.761795 2.6866-7.467636.075378-.345734.075302-.345734.334595-.345246.432327-.001709.605346-.003891.77835-.006057.25235.22908.5047.45816.835648 1.215621-.169357 1.588746-.417328 2.649109-.997986 3.813614-.872436 1.023819-1.412201 1.943528-1.951965 2.863236"/>
  <path fill="#7a5b40" d="M141.102188 137.720657c-.978088-.265121-1.812927-.815948-2.709976-1.833755.835541-.942322 1.733292-1.417664 2.631042-1.893006.074051 1.147019.148117 2.294037.078934 3.726761"/>
  <path fill="#753a31" d="M140.942398 133.671341c-.816894.797897-1.714645 1.273239-2.782852 2.011078-.170441.262497-.157517.293747-.357819.266937s-.593734-.029816-.593734-.029816c.24797-1.060379.495941-2.120742.814254-3.500839.993332.096878 1.916306.513474 2.920151 1.25264"/>
  <path fill="#96806b" d="M137.021378 130.752289c-.156739.244308-.329758.24649-.762345.248199-.100204-.267929.097382-.50325.520844-.840393.187622-.133896.225235.350037.241501.592194"/>
  <path fill="#5c5a47" d="M139.995575 58.999413c.843582.927543 1.692123 1.85617 2.540665 2.784793-.328904.222981-.657807.445965-.986695.668946-.482712-.94722-.965423-1.89444-1.499511-3.152294-.051377-.310631-.0495-.30037-.054459-.301445m-1.770233-.034653c-.019715-.303879.252273-.36306.66362-.079003-.06778.112652-.23819.106144-.66362.079003"/>
  <path fill="#a76c44" d="M19.959234 113.02404s-.484466-.01857-.726652-.032974c-.231548-1.076546-.220911-2.138687-.19343-3.600334.756756-.386627 1.496672-.373741 2.617304.050308.401478 1.448601.422239 2.486046.086529 3.532791-.83223.022942-1.307991.036575-1.783751.050209"/>
  <path fill="#acb1c2" d="M14.056808 99.038727c-.021418.175468-.042836.350929-.114043.787262-.668682-.006081-1.287575-.273026-1.742629-.682114.515698-.164665.867555-.18721 1.511093-.181587.291682.028168.345579.076439.345579.076439"/>
  <path fill="#91733f" d="M99.658966 136.038849c2.110588.255051 3.824707.600433 6.147301 1.056732 1.479072.059601 2.349685.008286 3.220299-.04303-.209954.530121-.419915 1.060242-.842026 1.787476-5.687508 3.396927-11.103127 1.67308-16.52446.420486-.081749-.431137-.16349-.862274-.245232-1.293411 2.615891-.61264 5.231774-1.225281 8.244118-1.928253"/>
  <path fill="#a06e44" d="M109.246109 137.110199c-1.090157-.006332-1.96077.044983-3.053963-.036423-.184387-.534088-.146194-.93547.308678-1.671905 1.467247-.370377 2.517822-.405701 3.56839-.441025.272789.187576.512993.410294.863449 1.116547.142853.448379.187042.941665.187042.94168-.551353.049576-1.102699.099167-1.873596.091126"/>
  <path fill="#6e5440" d="M111.338005 137.009613c-.2183.009445-.262489-.483841-.263206-.730988.248771-.08348.468734.113205.788665.52353.129494.180618-.307159.198013-.525459.207458"/>
  <path fill="#e7e7df" d="M81.863968 70.368752c-.432518 3.079422 1.676735 7.788818-4.641693 5.97055V66.201431c2.175277 1.755867 3.407051 2.750145 4.641693 4.167321"/>
  <path fill="#776656" d="M110.051544 134.59259c-1.032898.40358-2.083473.438904-3.522186.507782-.403595-.152404-.419037-.338409-.140587-.920044.717644-1.3264 1.141388-2.257156 1.569984-3.418853.004853-.230927.009911-.692841.009911-.692841.008347-.171051.016693-.342102.037285-.769241.684128 1.470932 1.356026 3.197921 2.045593 5.293197"/>
  <path fill="#4d3f30" d="M35.13282 118.564117c-.202762.342049-.404735.360741-.911522.388932-.276356-.729897-.24789-1.469284-.215038-2.578957.378708.375374.753033 1.121033 1.12656 2.190025"/>
  <path fill="#acb1c2" d="M13.978953 98.963348c-.023957-.027107.205428-.271644.205428-.271644s.015769.243149-.055902.295082c-.071671.051941-.125568.00367-.149526-.023438"/>
  <path fill="#a06b41" d="M19.971617 113.42363c.463377-.413224.939138-.426857 2.176409-.441132 2.124767.002052 3.488021.004746 4.851276.007431-.271731 1.779419-.543461 3.55883-.913349 5.648552-.098158.310303-.554394.433914-.78438.487473-2.211868-1.460205-6.226822-1.042893-5.329956-5.702324"/>
  <path fill="#795338" d="M26.911024 112.674637c-1.274977.312607-2.638231.309913-4.406526.298561-.425803-1.046112-.446564-2.083557-.477314-3.508019.723245-.44001 1.456483-.492996 2.556251-.553215.990791 1.144303 1.615051 2.295838 2.327589 3.762673"/>
  <path fill="#804938" d="M107.953903 130.992416c-.423744.930756-.847488 1.861512-1.573868 2.908097-.761161-1.056534-1.219688-2.228867-1.367401-3.37825 1.187638.172027 2.064453.32109 2.941269.470153"/>
  <path fill="#8e6543" d="M107.958755 130.761475c-.881668.081878-1.758483-.067185-2.753074-.433045.602241-.2444 1.322258-.272018 2.402626-.279724.360359.019928.355301.481842.350448.712769"/>
  <path fill="#7c5b37" d="M20.690918 121.990158c.24229.158409.25633.32473.255749.74086-.278683.097519-.507119-.09668-.820179-.524094-.120251-.191314.336183-.208839.56443-.216766m3.102282-1.92128c-.005755.082985-.335639.167572-.818354.146713.062853-.11866.27854-.131889.818354-.146713"/>
  <path fill="#776757" d="M136.875305 136.023666c.332688-.104126.72612-.10112.922028-.083709-.585251.998794-1.366394 1.980178-2.510773 2.954239.176544-.927002.716309-1.846711 1.588745-2.87053"/>
</svg>
